<svg width="296" height="102" viewBox="0 0 296 102" fill="none" xmlns="http://www.w3.org/2000/svg">
<g clip-path="url(#clip0_159_2192)">
<mask id="mask0_159_2192" style="mask-type:luminance" maskUnits="userSpaceOnUse" x="0" y="0" width="296" height="102">
<path d="M296 0H0V102H296V0Z" fill="white"/>
</mask>
<g mask="url(#mask0_159_2192)">
<path d="M296 0H289.026V102H296V0Z" fill="white"/>
<path d="M286.425 30.9341H279.45V102H286.425V30.9341Z" fill="white"/>
<path d="M252.322 80.1748H245.348V87.1542H252.322V80.1748Z" fill="#AB9F7D"/>
<path d="M269.463 0V55.8649H245.348V62.8443H269.463V102H276.437V28.3021H286.396V21.3227H276.437V6.97941H286.396V0H269.463Z" fill="white"/>
<path d="M245.348 65.2988V72.2782H259.208V95.0205H245.348V102H266.153V65.2988H245.348Z" fill="white"/>
<path d="M259.207 20.7608H252.351V6.97941H259.207V20.7608ZM259.207 27.7402V45.8394H245.376V52.8188H266.181V0H245.376V27.7402H259.207Z" fill="white"/>
<path d="M242.332 0H235.358V102H242.332V0Z" fill="white"/>
</g>
<g clip-path="url(#clip1_159_2192)">
<mask id="mask1_159_2192" style="mask-type:luminance" maskUnits="userSpaceOnUse" x="-118" y="-459" width="464" height="657">
<path d="M-118 -459H346V197.161H-118V-459Z" fill="white"/>
</mask>
<g mask="url(#mask1_159_2192)">
<path d="M19.1945 52.8181C19.1945 53.4409 18.8407 53.7534 18.1341 53.7534C17.4275 53.7534 17.0742 53.4409 17.0742 52.8181C17.0742 52.1942 17.427 51.8829 18.1341 51.8829C18.8407 51.8829 19.1945 52.1942 19.1945 52.8181ZM15.266 52.8181C15.266 53.4409 14.9094 53.7534 14.1956 53.7534C13.4885 53.7534 13.1352 53.4409 13.1352 52.8181C13.1352 52.1942 13.488 51.8829 14.1956 51.8829C14.9094 51.8829 15.266 52.1942 15.266 52.8181ZM24.8376 46.7484H22.7069V42.2588C22.5021 42.1922 22.2884 42.1569 22.0731 42.1541C21.5881 42.1541 21.1571 42.3437 20.7796 42.7218C20.4015 43.0988 20.213 43.5303 20.213 44.0153V44.1399C20.2196 44.1889 20.2229 44.2259 20.2229 44.254V47.6005C20.2229 48.4801 19.7247 49.2804 18.7266 50.0013C17.8051 50.6731 16.8836 51.0098 15.9626 51.0098C14.8256 51.0098 13.849 50.6979 13.0305 50.074C12.1443 49.3944 11.7012 48.5016 11.7012 47.3927C11.7012 46.2425 12.2104 45.2515 13.2289 44.421C13.5475 44.1575 13.7448 44.0258 13.8214 44.0258C13.8286 44.0258 13.8319 44.0329 13.8319 44.0467V46.9562C13.8319 47.4688 14.0705 47.8678 14.5484 48.1516C14.9507 48.3941 15.4219 48.5154 15.9626 48.5154C16.5231 48.5154 17.0191 48.3765 17.4485 48.0993C17.9054 47.8016 18.1341 47.2092 18.1341 46.3224C18.1341 41.6311 18.117 41.0397 18.0823 44.5444C18.0889 43.7894 18.1964 43.1357 18.4041 42.5807C18.6676 41.8466 19.125 41.199 19.7765 40.6374C20.1436 40.3188 20.639 40.1248 21.2624 40.0559C21.824 39.9931 22.3884 39.9308 22.9566 39.8685C23.6494 39.7087 24.2765 39.3626 24.8376 38.8285V46.7484Z" fill="white"/>
</g>
<mask id="mask2_159_2192" style="mask-type:luminance" maskUnits="userSpaceOnUse" x="-118" y="-459" width="464" height="657">
<path d="M-118 -459H346V197.161H-118V-459Z" fill="white"/>
</mask>
<g mask="url(#mask2_159_2192)">
<path d="M31.2193 47.9639C31.2193 48.6704 30.9889 49.2403 30.5282 49.6741C30.0674 50.1067 29.4766 50.3228 28.7563 50.3228C28.015 50.3228 27.3894 50.1106 26.8802 49.6834C26.3709 49.2579 26.0816 48.6848 26.0127 47.9639H28.7563V44.3473C28.7563 43.5856 28.9811 43.0273 29.432 42.674C29.4943 42.6189 30.09 42.3103 31.2193 41.7492V47.9639Z" fill="white"/>
</g>
<mask id="mask3_159_2192" style="mask-type:luminance" maskUnits="userSpaceOnUse" x="-118" y="-459" width="464" height="657">
<path d="M-118 -459H346V197.161H-118V-459Z" fill="white"/>
</mask>
<g mask="url(#mask3_159_2192)">
<path d="M39.098 46.748H34.3896V32.5721C34.868 32.8775 35.3431 33.1823 35.8138 33.4865C36.285 33.8751 36.5204 34.3424 36.5204 34.8897V44.2536H39.098V46.748Z" fill="white"/>
</g>
<mask id="mask4_159_2192" style="mask-type:luminance" maskUnits="userSpaceOnUse" x="-118" y="-459" width="464" height="657">
<path d="M-118 -459H346V197.161H-118V-459Z" fill="white"/>
</mask>
<g mask="url(#mask4_159_2192)">
<path d="M46.7562 35.1498C46.7562 35.4612 46.657 35.7159 46.4597 35.9137C46.2624 36.111 46.005 36.2097 45.6859 36.2097C45.3734 36.2097 45.1188 36.1105 44.9215 35.9137C44.7242 35.7153 44.6261 35.4612 44.6261 35.1498C44.6261 34.8313 44.7242 34.5728 44.9215 34.3755C45.1188 34.1771 45.3734 34.0795 45.6859 34.0795C46.005 34.0795 46.2624 34.1776 46.4597 34.3755C46.657 34.5728 46.7562 34.8313 46.7562 35.1498ZM45.0516 41.936V40.793H43.7531C43.2813 40.793 43.046 40.9969 43.046 41.4064C43.046 41.7591 43.2681 41.9355 43.7117 41.9355L45.0516 41.936ZM43.3474 35.1498C43.3474 35.4612 43.2493 35.7159 43.0509 35.9137C42.8536 36.111 42.599 36.2097 42.2876 36.2097C41.9679 36.2097 41.7111 36.1105 41.5127 35.9137C41.3154 35.7153 41.2173 35.4612 41.2173 35.1498C41.2173 34.8313 41.3154 34.5728 41.5127 34.3755C41.7111 34.1771 41.9685 34.0795 42.2876 34.0795C42.599 34.0795 42.8536 34.1776 43.0509 34.3755C43.2493 34.5728 43.3474 34.8313 43.3474 35.1498ZM48.6692 46.748H36.1143L37.6007 44.2541H45.0521V43.4743H42.9208C42.3873 43.4743 41.9271 43.2593 41.5391 42.8294C41.1778 42.4359 40.9806 41.9191 40.988 41.3849C40.988 40.8172 41.1881 40.3267 41.5854 39.915C41.9845 39.5016 42.5819 39.2961 43.3783 39.2961C42.8657 39.2961 43.289 39.3104 44.647 39.338C45.1656 39.3517 45.5988 39.3104 45.9455 39.2134C46.4151 39.0855 46.8419 38.8343 47.1817 38.4859V44.2541H48.6692V46.748Z" fill="white"/>
</g>
<mask id="mask5_159_2192" style="mask-type:luminance" maskUnits="userSpaceOnUse" x="-118" y="-459" width="464" height="657">
<path d="M-118 -459H346V197.161H-118V-459Z" fill="white"/>
</mask>
<g mask="url(#mask5_159_2192)">
<path d="M58.2507 46.748H45.6963L47.1822 44.2541H51.038C50.5248 43.2345 50.2691 42.4971 50.2691 42.0402C50.2691 41.3888 50.4978 40.8519 50.9547 40.4292C51.3978 40.0269 51.9484 39.8263 52.6076 39.8263C52.7944 39.8263 53.0744 39.8351 53.4492 39.8522C53.7295 39.8669 54.0101 39.8755 54.2908 39.8781C55.3853 39.8781 56.0021 39.7783 56.141 39.5772L56.7643 38.6832V42.3207H52.9917C52.7768 42.3207 52.6693 42.4354 52.6693 42.6635C52.6693 43.003 52.8308 43.3525 53.1527 43.7135C53.4751 44.0734 53.8058 44.2536 54.1453 44.2536H58.2507V46.748Z" fill="white"/>
</g>
<mask id="mask6_159_2192" style="mask-type:luminance" maskUnits="userSpaceOnUse" x="-118" y="-459" width="464" height="657">
<path d="M-118 -459H346V197.161H-118V-459Z" fill="white"/>
</mask>
<g mask="url(#mask6_159_2192)">
<path d="M62.0845 45.6876C62.0845 45.9786 61.9809 46.2282 61.7731 46.436C61.6762 46.5363 61.5599 46.6158 61.4312 46.6694C61.3024 46.7231 61.1641 46.7498 61.0246 46.748H55.2773L56.7638 44.2535H59.9543V34.9519C59.9543 34.3633 60.1759 33.8816 60.6195 33.5074C61.1046 33.196 61.5923 32.884 62.0845 32.5721V45.6876Z" fill="white"/>
</g>
<mask id="mask7_159_2192" style="mask-type:luminance" maskUnits="userSpaceOnUse" x="-118" y="-459" width="464" height="657">
<path d="M-118 -459H346V197.161H-118V-459Z" fill="white"/>
</mask>
<g mask="url(#mask7_159_2192)">
<path d="M67.4046 46.748H65.2744V35.0032C65.2744 34.4433 65.5098 33.9583 65.981 33.5493C66.4588 33.2236 66.9345 32.8979 67.4046 32.5721V46.748Z" fill="white"/>
</g>
<mask id="mask8_159_2192" style="mask-type:luminance" maskUnits="userSpaceOnUse" x="-118" y="-459" width="464" height="657">
<path d="M-118 -459H346V197.161H-118V-459Z" fill="white"/>
</mask>
<g mask="url(#mask8_159_2192)">
<path d="M81.884 46.7488H79.109V47.9646C79.109 48.6574 78.8714 49.2411 78.3969 49.7162C77.9224 50.1901 77.3387 50.4282 76.6459 50.4282C75.9322 50.4282 75.3116 50.1923 74.7853 49.7211C74.2589 49.2499 73.9641 48.6646 73.9023 47.9646H76.6459V44.3486C76.6459 43.5864 76.8708 43.0281 77.3216 42.6748C77.3839 42.6197 77.9797 42.311 79.109 41.75V44.2549H81.884V46.7488Z" fill="white"/>
</g>
<mask id="mask9_159_2192" style="mask-type:luminance" maskUnits="userSpaceOnUse" x="-118" y="-459" width="464" height="657">
<path d="M-118 -459H346V197.161H-118V-459Z" fill="white"/>
</mask>
<g mask="url(#mask9_159_2192)">
<path d="M88.5757 49.8352C88.5757 50.1466 88.4781 50.4012 88.2847 50.599C88.0907 50.7964 87.8338 50.895 87.5153 50.895C87.2039 50.895 86.9492 50.7964 86.7514 50.599C86.5541 50.4012 86.4554 50.1471 86.4554 49.8352C86.4554 49.5238 86.5546 49.2691 86.7514 49.0713C86.9498 48.874 87.2039 48.7748 87.5153 48.7748C87.8338 48.7748 88.0907 48.874 88.2847 49.0713C88.4781 49.2697 88.5757 49.5238 88.5757 49.8352ZM84.9591 49.8352C84.9591 50.1466 84.8604 50.4012 84.6626 50.599C84.4653 50.7964 84.2106 50.895 83.8992 50.895C83.5801 50.895 83.3238 50.7964 83.1298 50.599C82.9358 50.4012 82.8388 50.1471 82.8388 49.8352C82.8388 49.5238 82.9358 49.2691 83.1298 49.0713C83.3238 48.874 83.5801 48.7748 83.8992 48.7748C84.2106 48.7748 84.4653 48.874 84.6626 49.0713C84.861 49.2697 84.9591 49.5238 84.9591 49.8352ZM88.8975 45.6884C88.8975 45.9447 88.7708 46.1855 88.5183 46.4104C88.2659 46.6364 88.0113 46.7482 87.7545 46.7482H78.9004L80.3868 44.2543H86.7679C86.7679 42.9316 86.8434 42.1341 86.9967 41.864C87.135 41.6215 87.7688 41.1222 88.8981 40.3671L88.8975 45.6884Z" fill="white"/>
</g>
<mask id="mask10_159_2192" style="mask-type:luminance" maskUnits="userSpaceOnUse" x="-118" y="-459" width="464" height="657">
<path d="M-118 -459H346V197.161H-118V-459Z" fill="white"/>
</mask>
<g mask="url(#mask10_159_2192)">
<path d="M96.3291 44.2551V42.1553C95.8369 42.1553 95.4059 42.3344 95.035 42.6905C94.6641 43.0482 94.4795 43.472 94.4795 43.9636C94.4795 44.0468 94.4861 44.1438 94.5004 44.2551H96.3291ZM101.245 46.7485H98.4802C98.4802 46.8874 98.4857 47.1007 98.4962 47.3884C98.5066 47.6761 98.5116 47.8954 98.5116 48.0481C98.5116 49.233 98.1616 50.0366 97.4622 50.4593C96.797 50.8683 96.1351 51.0728 95.477 51.0728C94.7495 51.0728 94.0187 50.8369 93.2846 50.3662C92.7577 50.0328 92.4595 49.4094 92.3906 48.4945H96.35V46.7485H92.3691V44.5357C92.3691 42.6232 93.0344 41.2343 94.3654 40.3674C94.7324 40.1254 95.2692 39.97 95.9758 39.9C96.7171 39.8174 97.1817 39.7237 97.3685 39.6195L98.4802 39.0061V44.2551H101.245V46.7485Z" fill="white"/>
</g>
<mask id="mask11_159_2192" style="mask-type:luminance" maskUnits="userSpaceOnUse" x="-118" y="-459" width="464" height="657">
<path d="M-118 -459H346V197.161H-118V-459Z" fill="white"/>
</mask>
<g mask="url(#mask11_159_2192)">
<path d="M106.557 46.748H98.2637L99.7495 44.2541H106.557L106.557 46.748Z" fill="white"/>
</g>
<mask id="mask12_159_2192" style="mask-type:luminance" maskUnits="userSpaceOnUse" x="-118" y="-459" width="464" height="657">
<path d="M-118 -459H346V197.161H-118V-459Z" fill="white"/>
</mask>
<g mask="url(#mask12_159_2192)">
<path d="M118.903 44.2547V43.3398C118.903 43.056 118.757 42.8201 118.466 42.6332C118.217 42.4691 117.924 42.3823 117.625 42.3836H109.684V44.2541L118.903 44.2547ZM122.52 46.748H103.584L105.07 44.2547H107.585V34.7861C107.585 34.2118 107.803 33.751 108.239 33.4044C108.724 33.1277 109.206 32.8505 109.683 32.5733V41.1677C110.259 40.475 110.928 40.1289 111.69 40.1289H118.903C119.429 40.1289 119.904 40.3184 120.327 40.6998C120.659 40.998 120.857 41.2058 120.919 41.3237C120.995 41.4758 121.033 41.7663 121.033 42.1967V44.2541H122.52V46.748Z" fill="white"/>
</g>
<mask id="mask13_159_2192" style="mask-type:luminance" maskUnits="userSpaceOnUse" x="-118" y="-459" width="464" height="657">
<path d="M-118 -459H346V197.161H-118V-459Z" fill="white"/>
</mask>
<g mask="url(#mask13_159_2192)">
<path d="M129.118 37.0623C129.118 37.3809 129.018 37.6388 128.821 37.8361C128.624 38.034 128.369 38.1321 128.057 38.1321C127.739 38.1321 127.48 38.034 127.283 37.8361C127.086 37.6388 126.987 37.3809 126.987 37.0623C126.987 36.7504 127.086 36.4957 127.283 36.2979C127.48 36.1011 127.739 36.0019 128.057 36.0019C128.369 36.0019 128.624 36.1011 128.821 36.2979C129.018 36.4957 129.118 36.7498 129.118 37.0623ZM125.501 37.0623C125.501 37.3809 125.402 37.6388 125.204 37.8361C125.007 38.034 124.753 38.1321 124.441 38.1321C124.122 38.1321 123.864 38.034 123.666 37.8361C123.469 37.6388 123.37 37.3809 123.37 37.0623C123.37 36.7504 123.469 36.4957 123.666 36.2979C123.864 36.1011 124.122 36.0019 124.441 36.0019C124.753 36.0019 125.007 36.1011 125.204 36.2979C125.402 36.4957 125.501 36.7498 125.501 37.0623ZM131.061 46.748H119.546L121.032 44.2541H127.413C127.413 42.9303 127.489 42.1372 127.642 41.8732C127.773 41.6241 128.407 41.122 129.543 40.3669V44.2541H131.061V46.748Z" fill="white"/>
</g>
<mask id="mask14_159_2192" style="mask-type:luminance" maskUnits="userSpaceOnUse" x="-118" y="-459" width="464" height="657">
<path d="M-118 -459H346V197.161H-118V-459Z" fill="white"/>
</mask>
<g mask="url(#mask14_159_2192)">
<path d="M136.352 46.748H128.059L129.544 44.2541H136.352V46.748Z" fill="white"/>
</g>
<mask id="mask15_159_2192" style="mask-type:luminance" maskUnits="userSpaceOnUse" x="-118" y="-459" width="464" height="657">
<path d="M-118 -459H346V197.161H-118V-459Z" fill="white"/>
</mask>
<g mask="url(#mask15_159_2192)">
<path d="M141.672 46.748H133.379L134.865 44.2541H138.056V34.9525C138.056 34.3628 138.277 33.8817 138.721 33.508C139.206 33.196 139.694 32.8841 140.186 32.5721V44.2541H141.672V46.748Z" fill="white"/>
</g>
<mask id="mask16_159_2192" style="mask-type:luminance" maskUnits="userSpaceOnUse" x="-118" y="-459" width="464" height="657">
<path d="M-118 -459H346V197.161H-118V-459Z" fill="white"/>
</mask>
<g mask="url(#mask16_159_2192)">
<path d="M145.508 45.6876C145.508 45.9786 145.405 46.2282 145.197 46.436C145.1 46.5363 144.984 46.6158 144.855 46.6694C144.726 46.7231 144.588 46.7498 144.448 46.748H138.701L140.188 44.2535H143.379V34.9519C143.379 34.3633 143.6 33.8816 144.043 33.5074C144.528 33.196 145.016 32.884 145.508 32.5721V45.6876Z" fill="white"/>
</g>
<mask id="mask17_159_2192" style="mask-type:luminance" maskUnits="userSpaceOnUse" x="-118" y="-459" width="464" height="657">
<path d="M-118 -459H346V197.161H-118V-459Z" fill="white"/>
</mask>
<g mask="url(#mask17_159_2192)">
<path d="M156.962 40.2535C156.962 40.5721 156.863 40.8301 156.666 41.0274C156.468 41.2252 156.21 41.3233 155.892 41.3233C155.579 41.3233 155.324 41.2252 155.127 41.0274C154.93 40.8301 154.832 40.5721 154.832 40.2535C154.832 39.9416 154.93 39.687 155.127 39.4891C155.325 39.2918 155.579 39.1932 155.892 39.1932C156.21 39.1932 156.468 39.2918 156.666 39.4891C156.863 39.687 156.962 39.9411 156.962 40.2535ZM160.412 46.7487C160.412 47.9061 159.986 48.907 159.134 49.7519C158.282 50.5979 157.276 51.0195 156.12 51.0195C155.005 51.0195 154.038 50.7048 153.221 50.0743C152.333 49.3953 151.891 48.5157 151.891 47.4344C151.891 46.0769 152.323 45.2315 153.189 44.8991L153.418 46.6451C153.543 47.3104 153.747 47.8091 154.031 48.1415C154.384 48.5642 154.911 48.7753 155.611 48.7753C156.22 48.7753 156.742 48.5918 157.175 48.2241C157.608 47.8571 157.824 47.2718 157.824 46.4682C157.824 46.267 157.804 45.9 157.762 45.3659C157.721 44.903 157.707 44.5447 157.721 44.2962C157.742 43.9153 157.814 43.5962 157.939 43.3405C158.119 42.9729 158.369 42.7205 158.687 42.5816L160.412 41.7912V46.7487Z" fill="white"/>
</g>
<mask id="mask18_159_2192" style="mask-type:luminance" maskUnits="userSpaceOnUse" x="-118" y="-459" width="464" height="657">
<path d="M-118 -459H346V197.161H-118V-459Z" fill="white"/>
</mask>
<g mask="url(#mask18_159_2192)">
<path d="M165.731 46.748H163.601V35.0032C163.601 34.4433 163.836 33.9583 164.307 33.5493C164.785 33.2236 165.26 32.8979 165.731 32.5721V46.748Z" fill="white"/>
</g>
<mask id="mask19_159_2192" style="mask-type:luminance" maskUnits="userSpaceOnUse" x="-118" y="-459" width="464" height="657">
<path d="M-118 -459H346V197.161H-118V-459Z" fill="white"/>
</mask>
<g mask="url(#mask19_159_2192)">
<path d="M173.162 44.2551V42.1553C172.67 42.1553 172.239 42.3344 171.868 42.6905C171.497 43.0482 171.312 43.472 171.312 43.9636C171.312 44.0468 171.319 44.1438 171.333 44.2551H173.162ZM175.313 48.4945C175.313 49.292 175.005 49.9291 174.389 50.407C173.827 50.8512 173.135 51.0728 172.31 51.0728C171.583 51.0728 170.852 50.8369 170.118 50.3662C169.591 50.0328 169.293 49.4094 169.224 48.4945H173.183V46.7485H169.202V44.5357C169.202 42.6232 169.867 41.2343 171.198 40.3674C171.544 40.1387 172.074 39.9871 172.788 39.9099C173.529 39.8273 174 39.7308 174.202 39.62L175.313 39.0066V48.4945Z" fill="white"/>
</g>
<mask id="mask20_159_2192" style="mask-type:luminance" maskUnits="userSpaceOnUse" x="-118" y="-459" width="464" height="657">
<path d="M-118 -459H346V197.161H-118V-459Z" fill="white"/>
</mask>
<g mask="url(#mask20_159_2192)">
<path d="M187.443 46.748H177.528V44.2541H183.826V42.9336C183.826 42.7402 183.724 42.5616 183.52 42.3984C183.316 42.2359 183.112 42.1543 182.911 42.1543H178.723V38.9323C178.883 39.2095 179.118 39.4559 179.43 39.6703C179.769 39.9062 180.085 40.0241 180.376 40.0241H183.826C184.45 40.0241 184.96 40.2214 185.359 40.6161C185.757 41.0112 185.957 41.4924 185.957 42.0601V44.2536H187.443V46.748Z" fill="white"/>
</g>
<mask id="mask21_159_2192" style="mask-type:luminance" maskUnits="userSpaceOnUse" x="-118" y="-459" width="464" height="657">
<path d="M-118 -459H346V197.161H-118V-459Z" fill="white"/>
</mask>
<g mask="url(#mask21_159_2192)">
<path d="M192.764 46.748H184.471L185.957 44.2541H192.764L192.764 46.748Z" fill="white"/>
</g>
<mask id="mask22_159_2192" style="mask-type:luminance" maskUnits="userSpaceOnUse" x="-118" y="-459" width="464" height="657">
<path d="M-118 -459H346V197.161H-118V-459Z" fill="white"/>
</mask>
<g mask="url(#mask22_159_2192)">
<path d="M198.086 46.748H189.792L191.278 44.2541H198.086V46.748Z" fill="white"/>
</g>
<mask id="mask23_159_2192" style="mask-type:luminance" maskUnits="userSpaceOnUse" x="-118" y="-459" width="464" height="657">
<path d="M-118 -459H346V197.161H-118V-459Z" fill="white"/>
</mask>
<g mask="url(#mask23_159_2192)">
<path d="M207.668 46.748H195.113L196.6 44.2541H200.455C199.942 43.2345 199.687 42.4971 199.687 42.0402C199.687 41.3888 199.915 40.8519 200.372 40.4292C200.815 40.0269 201.366 39.8263 202.025 39.8263C202.212 39.8263 202.491 39.8351 202.866 39.8522C203.147 39.8669 203.427 39.8756 203.708 39.8781C204.803 39.8781 205.419 39.7783 205.558 39.5772L206.181 38.6832V42.3207H202.409C202.194 42.3207 202.086 42.4354 202.086 42.6635C202.086 43.003 202.248 43.3525 202.57 43.7135C202.893 44.0734 203.223 44.2536 203.563 44.2536H207.668V46.748Z" fill="white"/>
</g>
<mask id="mask24_159_2192" style="mask-type:luminance" maskUnits="userSpaceOnUse" x="-118" y="-459" width="464" height="657">
<path d="M-118 -459H346V197.161H-118V-459Z" fill="white"/>
</mask>
<g mask="url(#mask24_159_2192)">
<path d="M211.501 45.6876C211.501 45.9786 211.398 46.2282 211.19 46.436C211.093 46.5363 210.976 46.6157 210.848 46.6693C210.719 46.723 210.581 46.7497 210.442 46.748H204.694L206.181 44.2535H209.371V34.9519C209.371 34.3633 209.593 33.8816 210.036 33.5074C210.521 33.196 211.009 32.884 211.501 32.5721V45.6876Z" fill="white"/>
</g>
<mask id="mask25_159_2192" style="mask-type:luminance" maskUnits="userSpaceOnUse" x="-118" y="-459" width="464" height="657">
<path d="M-118 -459H346V197.161H-118V-459Z" fill="white"/>
</mask>
<g mask="url(#mask25_159_2192)">
<path d="M216.823 46.748H214.692V35.0032C214.692 34.4433 214.928 33.9583 215.399 33.5493C215.877 33.2236 216.352 32.8979 216.823 32.5721V46.748Z" fill="white"/>
</g>
<mask id="mask26_159_2192" style="mask-type:luminance" maskUnits="userSpaceOnUse" x="-118" y="-459" width="464" height="657">
<path d="M-118 -459H346V197.161H-118V-459Z" fill="white"/>
</mask>
<g mask="url(#mask26_159_2192)">
<path d="M15.3543 60.2789C15.0291 61.1106 14.7039 61.9257 14.4146 62.737H16.2399L15.3543 60.2789ZM16.3513 65.6553V65.2893C17.0402 65.1956 17.0705 65.0799 16.9189 64.6346C16.7993 64.2763 16.6114 63.7709 16.4262 63.2512H14.2382C14.1004 63.6398 13.9455 64.0542 13.8221 64.4273C13.5906 65.1157 13.8127 65.2022 14.6786 65.2893V65.6553H12.0684V65.2893C12.7496 65.2028 12.9226 65.1129 13.2941 64.1815L15.5394 58.5621L15.9969 58.4761C16.6858 60.3461 17.4243 62.3121 18.1199 64.1407C18.5013 65.1234 18.5988 65.2028 19.3241 65.2893V65.6553H16.3513Z" fill="white"/>
</g>
<mask id="mask27_159_2192" style="mask-type:luminance" maskUnits="userSpaceOnUse" x="-118" y="-459" width="464" height="657">
<path d="M-118 -459H346V197.161H-118V-459Z" fill="white"/>
</mask>
<g mask="url(#mask27_159_2192)">
<path d="M25.3583 63.7897C25.2795 64.2096 24.9687 65.3483 24.8678 65.6553H19.6221V65.2893C20.5849 65.2133 20.6714 65.1449 20.6714 64.2328V60.0529C20.6714 59.1408 20.5634 59.0658 19.7334 58.9936V58.6277H22.941V58.9936C22.0895 59.073 21.9776 59.1369 21.9776 60.0529V64.3204C21.9776 64.9377 22.0217 65.1659 22.6241 65.1769C22.6418 65.184 23.2381 65.1879 23.2888 65.1879C23.8824 65.1879 24.0444 65.0804 24.3001 64.796C24.5283 64.5574 24.7907 64.1038 24.9737 63.6756L25.3583 63.7897Z" fill="white"/>
</g>
<mask id="mask28_159_2192" style="mask-type:luminance" maskUnits="userSpaceOnUse" x="-118" y="-459" width="464" height="657">
<path d="M-118 -459H346V197.161H-118V-459Z" fill="white"/>
</mask>
<g mask="url(#mask28_159_2192)">
<path d="M29.1052 60.2789C28.7801 61.1106 28.4549 61.9257 28.1655 62.737H29.9909L29.1052 60.2789ZM30.1022 65.6553V65.2893C30.7912 65.1956 30.8215 65.0799 30.6699 64.6346C30.5503 64.2763 30.3624 63.7709 30.1772 63.2512H27.9892C27.8514 63.6398 27.6965 64.0542 27.5731 64.4273C27.3416 65.1157 27.5637 65.2022 28.4295 65.2893V65.6553H25.8193V65.2893C26.5005 65.2028 26.6736 65.1129 27.0451 64.1815L29.2904 58.5621L29.7479 58.4761C30.4368 60.3461 31.1753 62.3121 31.8709 64.1407C32.2523 65.1234 32.3498 65.2028 33.0751 65.2893V65.6553H30.1022Z" fill="white"/>
</g>
<mask id="mask29_159_2192" style="mask-type:luminance" maskUnits="userSpaceOnUse" x="-118" y="-459" width="464" height="657">
<path d="M-118 -459H346V197.161H-118V-459Z" fill="white"/>
</mask>
<g mask="url(#mask29_159_2192)">
<path d="M35.7267 64.154C35.7267 64.9366 35.9741 65.1846 36.7711 65.1846C38.4014 65.1846 39.2975 64.0586 39.2975 62.0684C39.2975 60.9882 38.9745 60.0904 38.3529 59.6065C37.8833 59.202 37.2985 59.062 36.5738 59.062C36.1433 59.062 35.9334 59.1408 35.8529 59.2135C35.7559 59.299 35.7261 59.4605 35.7261 59.8115L35.7267 64.154ZM36.6923 58.6271C38.1252 58.6271 39.1228 58.9231 39.8073 59.5679C40.3513 60.0799 40.7608 60.8366 40.7608 61.9097C40.7608 63.1608 40.2427 64.1385 39.4099 64.7657C38.602 65.3753 37.5675 65.6553 36.301 65.6553H33.4824V65.2893C34.3422 65.2166 34.4205 65.1273 34.4205 64.2333V60.0529C34.4205 59.1369 34.2981 59.0658 33.4824 58.9931V58.6271H36.6923Z" fill="white"/>
</g>
<mask id="mask30_159_2192" style="mask-type:luminance" maskUnits="userSpaceOnUse" x="-118" y="-459" width="464" height="657">
<path d="M-118 -459H346V197.161H-118V-459Z" fill="white"/>
</mask>
<g mask="url(#mask30_159_2192)">
<path d="M51.6153 58.9928C50.8443 59.0936 50.7153 59.2297 50.416 60.116C50.1085 61.0353 49.2785 63.6626 48.6276 65.7734H48.1056C47.5501 64.1713 46.8959 62.401 46.2985 60.7867C45.7137 62.4986 45.1394 64.1718 44.612 65.7734H44.0796C43.6094 64.1316 42.9437 61.9689 42.3457 60.0636C42.0718 59.222 41.9246 59.0611 41.25 58.9928V58.6268H44.3072V58.9928C43.5003 59.0721 43.4783 59.2193 43.6298 59.7737C44.009 61.0931 44.4064 62.4192 44.7938 63.7182C45.3604 62.1254 45.9248 60.4059 46.4412 58.6957H46.9345C47.533 60.4141 48.1453 62.0593 48.7516 63.7287C49.1704 62.4666 49.7238 60.6192 49.9051 59.8895C50.0605 59.2556 49.9597 59.0798 49.0338 58.9928V58.6268H51.6153V58.9928Z" fill="white"/>
</g>
<mask id="mask31_159_2192" style="mask-type:luminance" maskUnits="userSpaceOnUse" x="-118" y="-459" width="464" height="657">
<path d="M-118 -459H346V197.161H-118V-459Z" fill="white"/>
</mask>
<g mask="url(#mask31_159_2192)">
<path d="M53.783 60.2789C53.4578 61.1106 53.1326 61.9257 52.8433 62.737H54.6687L53.783 60.2789ZM54.78 65.6553V65.2893C55.4689 65.1956 55.4992 65.0799 55.3477 64.6346C55.2281 64.2763 55.0401 63.7709 54.8549 63.2512H52.6669C52.5291 63.6398 52.3743 64.0542 52.2508 64.4273C52.0193 65.1157 52.2414 65.2022 53.1073 65.2893V65.6553H50.4971V65.2893C51.1783 65.2028 51.3513 65.1129 51.7228 64.1815L53.9682 58.5621L54.4256 58.4761C55.1145 60.3461 55.853 62.3121 56.5486 64.1407C56.93 65.1234 57.0275 65.2028 57.7528 65.2893V65.6553H54.78Z" fill="white"/>
</g>
<mask id="mask32_159_2192" style="mask-type:luminance" maskUnits="userSpaceOnUse" x="-118" y="-459" width="464" height="657">
<path d="M-118 -459H346V197.161H-118V-459Z" fill="white"/>
</mask>
<g mask="url(#mask32_159_2192)">
<path d="M65.678 58.994C65.0073 59.0767 64.794 59.2056 64.7615 59.6961C64.7367 60.0913 64.708 60.4898 64.708 61.4526V65.7681H64.1707L59.6205 60.2743V62.8084C59.6205 63.7603 59.6458 64.205 59.6745 64.5186C59.7097 65.0207 59.9522 65.239 60.7448 65.2902V65.6556H58.0822V65.2897C58.7177 65.2357 58.9839 65.0736 59.0412 64.5578C59.0809 64.1841 59.1018 63.7603 59.1018 62.8051V60.174C59.1018 59.8361 59.0809 59.6206 58.8792 59.355C58.6808 59.0849 58.4327 59.0408 57.9521 58.994V58.628H59.89L64.1723 63.6445V61.4526C64.1723 60.4892 64.158 60.0946 64.1255 59.7209C64.0924 59.2486 63.8935 59.0486 63.0067 58.994V58.628H65.678V58.994Z" fill="white"/>
</g>
<mask id="mask33_159_2192" style="mask-type:luminance" maskUnits="userSpaceOnUse" x="-118" y="-459" width="464" height="657">
<path d="M-118 -459H346V197.161H-118V-459Z" fill="white"/>
</mask>
<g mask="url(#mask33_159_2192)">
<path d="M71.3355 62.1996C71.8348 62.1996 72.1914 62.1203 72.4405 61.9075C72.8203 61.6005 72.979 61.1822 72.979 60.6195C72.979 59.4698 72.2812 59.0543 71.5967 59.0543C71.2969 59.0543 71.1415 59.0984 71.0726 59.1634C70.9894 59.2317 70.964 59.3541 70.964 59.5927V62.1996H71.3355ZM75.4095 65.728C75.318 65.728 75.1924 65.7242 75.0584 65.7132C73.89 65.652 73.4822 65.3907 73.1052 64.8605C72.6841 64.2813 72.3435 63.6139 71.9836 62.9993C71.8029 62.6885 71.6551 62.6235 71.2374 62.6235L70.964 62.6163V64.2366C70.964 65.1278 71.0759 65.1956 71.9059 65.2893V65.6553H68.7451V65.2893C69.5933 65.1989 69.6821 65.1278 69.6821 64.2366V60.0353C69.6821 59.1579 69.5707 59.0697 68.7451 58.9936V58.6277H71.7483C72.65 58.6277 73.1934 58.7318 73.6255 59.0228C74.062 59.3111 74.353 59.7906 74.353 60.4575C74.353 61.4082 73.7313 61.9428 72.9873 62.247C73.1603 62.575 73.5974 63.2854 73.922 63.7786C74.3078 64.3662 74.5338 64.6506 74.7542 64.8997C75.0188 65.1918 75.183 65.2899 75.474 65.383L75.4095 65.728Z" fill="white"/>
</g>
<mask id="mask34_159_2192" style="mask-type:luminance" maskUnits="userSpaceOnUse" x="-118" y="-459" width="464" height="657">
<path d="M-118 -459H346V197.161H-118V-459Z" fill="white"/>
</mask>
<g mask="url(#mask34_159_2192)">
<path d="M81.6721 63.8597C81.6143 64.1479 81.3156 65.3455 81.2142 65.6553H75.7275V65.297C76.719 65.2072 76.7879 65.1383 76.7879 64.2377V60.0579C76.7879 59.1237 76.6612 59.0625 75.9001 58.9942V58.6282H79.3419C80.4359 58.6282 80.8295 58.6172 80.9733 58.6062C80.9843 58.8272 81.0339 59.6875 81.0775 60.3241L80.69 60.3775C80.5925 60.0099 80.4354 59.6423 80.2745 59.4362C80.0871 59.1717 79.9085 59.1022 79.3232 59.1022H78.5069C78.1228 59.1022 78.087 59.1281 78.087 59.477V61.7813H79.1959C79.8732 61.7813 79.962 61.6198 80.113 60.8631H80.5043V63.2099H80.113C79.9515 62.4173 79.865 62.295 79.1849 62.295H78.087V64.257C78.087 65.0066 78.1845 65.1774 78.809 65.1885H79.6599C80.2844 65.1885 80.4277 65.1052 80.6658 64.817C80.9132 64.5337 81.1331 64.1187 81.2985 63.766L81.6721 63.8597Z" fill="white"/>
</g>
<mask id="mask35_159_2192" style="mask-type:luminance" maskUnits="userSpaceOnUse" x="-118" y="-459" width="464" height="657">
<path d="M-118 -459H346V197.161H-118V-459Z" fill="white"/>
</mask>
<g mask="url(#mask35_159_2192)">
<path d="M85.2727 60.2789C84.9475 61.1106 84.6223 61.9257 84.3335 62.737H86.1589L85.2727 60.2789ZM86.2702 65.6553V65.2893C86.9591 65.1956 86.9895 65.0799 86.8379 64.6346C86.7183 64.2763 86.5303 63.7709 86.3452 63.2512H84.1571C84.0194 63.6398 83.8645 64.0542 83.741 64.4273C83.5095 65.1157 83.7317 65.2022 84.5975 65.2893V65.6553H81.9873V65.2893C82.6685 65.2028 82.8416 65.1129 83.213 64.1815L85.4584 58.5621L85.9158 58.4761C86.6048 60.3461 87.3433 62.3121 88.0388 64.1407C88.4202 65.1234 88.5178 65.2028 89.2431 65.2893V65.6553H86.2702Z" fill="white"/>
</g>
<mask id="mask36_159_2192" style="mask-type:luminance" maskUnits="userSpaceOnUse" x="-118" y="-459" width="464" height="657">
<path d="M-118 -459H346V197.161H-118V-459Z" fill="white"/>
</mask>
<g mask="url(#mask36_159_2192)">
<path d="M95.2763 63.7897C95.1975 64.2096 94.8867 65.3483 94.7858 65.6553H89.54V65.2893C90.5029 65.2133 90.59 65.1449 90.59 64.2328V60.0529C90.59 59.1408 90.4814 59.0658 89.6514 58.9936V58.6277H92.859V58.9936C92.0075 59.073 91.8956 59.1369 91.8956 60.0529V64.3204C91.8956 64.9377 91.9397 65.1659 92.5421 65.1769C92.5597 65.184 93.1561 65.1879 93.2068 65.1879C93.8004 65.1879 93.9624 65.0804 94.2181 64.796C94.4463 64.5574 94.7086 64.1038 94.8916 63.6756L95.2763 63.7897Z" fill="white"/>
</g>
<mask id="mask37_159_2192" style="mask-type:luminance" maskUnits="userSpaceOnUse" x="-118" y="-459" width="464" height="657">
<path d="M-118 -459H346V197.161H-118V-459Z" fill="white"/>
</mask>
<g mask="url(#mask37_159_2192)">
<path d="M104.177 63.8597C104.118 64.1479 103.819 65.3455 103.718 65.6553H98.2314V65.297C99.2235 65.2072 99.2918 65.1383 99.2918 64.2377V60.0579C99.2918 59.1237 99.1656 59.0625 98.4045 58.9942V58.6282H101.846C102.94 58.6282 103.334 58.6172 103.477 58.6062C103.488 58.8272 103.538 59.6875 103.582 60.3241L103.194 60.3775C103.096 60.0099 102.939 59.6423 102.778 59.4362C102.591 59.1717 102.412 59.1022 101.827 59.1022H101.011C100.627 59.1022 100.591 59.1281 100.591 59.477V61.7813H101.7C102.378 61.7813 102.466 61.6198 102.617 60.8631H103.008V63.2099H102.617C102.455 62.4173 102.369 62.295 101.689 62.295H100.591V64.257C100.591 65.0066 100.688 65.1774 101.313 65.1885H102.164C102.788 65.1885 102.932 65.1052 103.17 64.817C103.418 64.5337 103.637 64.1187 103.802 63.766L104.177 63.8597Z" fill="white"/>
</g>
<mask id="mask38_159_2192" style="mask-type:luminance" maskUnits="userSpaceOnUse" x="-118" y="-459" width="464" height="657">
<path d="M-118 -459H346V197.161H-118V-459Z" fill="white"/>
</mask>
<g mask="url(#mask38_159_2192)">
<path d="M108.9 60.3622C108.695 59.6633 108.393 58.9044 107.39 58.9044C106.687 58.9044 106.318 59.4082 106.318 59.9984C106.318 60.646 106.745 61.0103 107.677 61.4827C108.883 62.0889 109.558 62.629 109.558 63.6845C109.558 64.9108 108.525 65.8174 107.032 65.8174C106.355 65.8174 105.758 65.6344 105.272 65.4757C105.2 65.2078 105.034 64.2191 104.959 63.6845L105.35 63.5908C105.567 64.288 106.127 65.3831 107.209 65.3831C107.91 65.3831 108.337 64.9267 108.337 64.2306C108.337 63.5318 107.929 63.1758 107.005 62.6775C105.877 62.0685 105.176 61.5356 105.176 60.4526C105.176 59.3778 106.032 58.4767 107.586 58.4767C108.283 58.4767 108.857 58.6388 109.09 58.6751C109.134 59.0714 109.198 59.5878 109.285 60.2768L108.9 60.3622Z" fill="white"/>
</g>
<mask id="mask39_159_2192" style="mask-type:luminance" maskUnits="userSpaceOnUse" x="-118" y="-459" width="464" height="657">
<path d="M-118 -459H346V197.161H-118V-459Z" fill="white"/>
</mask>
<g mask="url(#mask39_159_2192)">
<path d="M116.275 60.4371C116.163 59.9929 115.963 59.601 115.851 59.4345C115.664 59.1843 115.57 59.1017 114.948 59.1017H114.119V64.2482C114.119 65.1333 114.22 65.2171 115.205 65.2893V65.6553H111.77V65.2893C112.72 65.2171 112.813 65.1372 112.813 64.2482V59.1017H112.04C111.438 59.1017 111.265 59.1876 111.068 59.4698C110.924 59.6792 110.795 60.0232 110.655 60.4442H110.274C110.346 59.7002 110.418 58.9137 110.443 58.3648H110.741C110.903 58.6172 111.029 58.6271 111.346 58.6271H115.656C115.951 58.6271 116.08 58.5698 116.256 58.3648H116.551C116.558 58.8377 116.601 59.7283 116.656 60.4046L116.275 60.4371Z" fill="white"/>
</g>
<mask id="mask40_159_2192" style="mask-type:luminance" maskUnits="userSpaceOnUse" x="-118" y="-459" width="464" height="657">
<path d="M-118 -459H346V197.161H-118V-459Z" fill="white"/>
</mask>
<g mask="url(#mask40_159_2192)">
<path d="M119.431 60.2789C119.106 61.1106 118.781 61.9257 118.492 62.737H120.317L119.431 60.2789ZM120.428 65.6553V65.2893C121.117 65.1956 121.148 65.0799 120.996 64.6346C120.876 64.2763 120.689 63.7709 120.503 63.2512H118.315C118.178 63.6398 118.023 64.0542 117.899 64.4273C117.668 65.1157 117.89 65.2022 118.756 65.2893V65.6553H116.146V65.2893C116.827 65.2028 117 65.1129 117.371 64.1815L119.617 58.5621L120.074 58.4761C120.763 60.3461 121.501 62.3121 122.197 64.1407C122.578 65.1234 122.676 65.2028 123.401 65.2893V65.6553H120.428Z" fill="white"/>
</g>
<mask id="mask41_159_2192" style="mask-type:luminance" maskUnits="userSpaceOnUse" x="-118" y="-459" width="464" height="657">
<path d="M-118 -459H346V197.161H-118V-459Z" fill="white"/>
</mask>
<g mask="url(#mask41_159_2192)">
<path d="M128.815 60.4371C128.703 59.9929 128.503 59.601 128.391 59.4345C128.204 59.1843 128.11 59.1017 127.488 59.1017H126.659V64.2482C126.659 65.1333 126.76 65.2171 127.745 65.2893V65.6553H124.31V65.2893C125.26 65.2171 125.353 65.1372 125.353 64.2482V59.1017H124.58C123.978 59.1017 123.805 59.1876 123.608 59.4698C123.464 59.6792 123.335 60.0232 123.195 60.4442H122.814C122.886 59.7002 122.958 58.9137 122.983 58.3648H123.281C123.443 58.6172 123.569 58.6271 123.886 58.6271H128.196C128.491 58.6271 128.62 58.5698 128.797 58.3648H129.091C129.098 58.8377 129.141 59.7283 129.196 60.4046L128.815 60.4371Z" fill="white"/>
</g>
<mask id="mask42_159_2192" style="mask-type:luminance" maskUnits="userSpaceOnUse" x="-118" y="-459" width="464" height="657">
<path d="M-118 -459H346V197.161H-118V-459Z" fill="white"/>
</mask>
<g mask="url(#mask42_159_2192)">
<path d="M135.815 63.8597C135.757 64.1479 135.458 65.3455 135.357 65.6553H129.87V65.297C130.862 65.2072 130.93 65.1383 130.93 64.2377V60.0579C130.93 59.1237 130.804 59.0625 130.043 58.9942V58.6282H133.484C134.579 58.6282 134.972 58.6172 135.116 58.6062C135.127 58.8272 135.177 59.6875 135.22 60.3241L134.833 60.3775C134.735 60.0099 134.578 59.6423 134.417 59.4362C134.23 59.1717 134.051 59.1022 133.466 59.1022H132.65C132.265 59.1022 132.23 59.1281 132.23 59.477V61.7813H133.338C134.016 61.7813 134.105 61.6198 134.256 60.8631H134.647V63.2099H134.256C134.094 62.4173 134.008 62.295 133.327 62.295H132.23V64.257C132.23 65.0066 132.327 65.1774 132.952 65.1885H133.803C134.427 65.1885 134.57 65.1052 134.808 64.817C135.056 64.5337 135.276 64.1187 135.441 63.766L135.815 63.8597Z" fill="white"/>
</g>
<mask id="mask43_159_2192" style="mask-type:luminance" maskUnits="userSpaceOnUse" x="-118" y="-459" width="464" height="657">
<path d="M-118 -459H346V197.161H-118V-459Z" fill="white"/>
</mask>
<g mask="url(#mask43_159_2192)">
<path d="M141.168 64.154C141.168 64.9366 141.416 65.1846 142.212 65.1846C143.843 65.1846 144.739 64.0586 144.739 62.0684C144.739 60.9882 144.416 60.0904 143.794 59.6065C143.325 59.202 142.74 59.062 142.015 59.062C141.585 59.062 141.375 59.1408 141.294 59.2135C141.197 59.299 141.168 59.4605 141.168 59.8115L141.168 64.154ZM142.134 58.6271C143.567 58.6271 144.564 58.9231 145.249 59.5679C145.793 60.0799 146.202 60.8366 146.202 61.9097C146.202 63.1608 145.684 64.1385 144.851 64.7657C144.043 65.3753 143.009 65.6553 141.742 65.6553H138.924V65.2893C139.784 65.2166 139.862 65.1273 139.862 64.2333V60.0529C139.862 59.1369 139.74 59.0658 138.924 58.9931V58.6271H142.134Z" fill="white"/>
</g>
<mask id="mask44_159_2192" style="mask-type:luminance" maskUnits="userSpaceOnUse" x="-118" y="-459" width="464" height="657">
<path d="M-118 -459H346V197.161H-118V-459Z" fill="white"/>
</mask>
<g mask="url(#mask44_159_2192)">
<path d="M153.003 63.8597C152.945 64.1479 152.647 65.3455 152.545 65.6553H147.059V65.297C148.05 65.2072 148.118 65.1383 148.118 64.2377V60.0579C148.118 59.1237 147.993 59.0625 147.231 58.9942V58.6282H150.673C151.767 58.6282 152.161 58.6172 152.304 58.6062C152.315 58.8272 152.365 59.6875 152.409 60.3241L152.021 60.3775C151.924 60.0099 151.766 59.6423 151.606 59.4362C151.418 59.1717 151.24 59.1022 150.654 59.1022H149.838C149.454 59.1022 149.418 59.1281 149.418 59.477V61.7813H150.527C151.204 61.7813 151.293 61.6198 151.444 60.8631H151.835V63.2099H151.444C151.283 62.4173 151.196 62.295 150.516 62.295H149.418V64.257C149.418 65.0066 149.516 65.1774 150.14 65.1885H150.991C151.615 65.1885 151.759 65.1052 151.997 64.817C152.244 64.5337 152.464 64.1187 152.63 63.766L153.003 63.8597Z" fill="white"/>
</g>
<mask id="mask45_159_2192" style="mask-type:luminance" maskUnits="userSpaceOnUse" x="-118" y="-459" width="464" height="657">
<path d="M-118 -459H346V197.161H-118V-459Z" fill="white"/>
</mask>
<g mask="url(#mask45_159_2192)">
<path d="M160.565 58.9928C159.849 59.076 159.643 59.1735 159.24 60.1816C158.92 60.9725 157.673 63.9833 156.968 65.7734H156.456C156.036 64.616 154.797 61.3202 154.286 60.0151C153.962 59.2077 153.807 59.0578 153.119 58.9928V58.6268H156.224L156.217 58.9928C155.423 59.0931 155.409 59.1879 155.574 59.6233C156.094 61.0651 156.625 62.5031 157.167 63.937C157.79 62.444 158.419 60.8716 158.758 59.938C159.017 59.2336 158.923 59.0936 158.022 58.9928V58.6268H160.565V58.9928Z" fill="white"/>
</g>
<mask id="mask46_159_2192" style="mask-type:luminance" maskUnits="userSpaceOnUse" x="-118" y="-459" width="464" height="657">
<path d="M-118 -459H346V197.161H-118V-459Z" fill="white"/>
</mask>
<g mask="url(#mask46_159_2192)">
<path d="M166.828 63.8597C166.771 64.1479 166.472 65.3455 166.371 65.6553H160.884V65.297C161.876 65.2072 161.944 65.1383 161.944 64.2377V60.0579C161.944 59.1237 161.818 59.0625 161.056 58.9942V58.6282H164.498C165.592 58.6282 165.986 58.6172 166.13 58.6062C166.141 58.8272 166.191 59.6875 166.234 60.3241L165.846 60.3775C165.749 60.0099 165.592 59.6423 165.431 59.4362C165.244 59.1717 165.065 59.1022 164.479 59.1022H163.664C163.279 59.1022 163.243 59.1281 163.243 59.477V61.7813H164.352C165.029 61.7813 165.119 61.6198 165.269 60.8631H165.661V63.2099H165.27C165.108 62.4173 165.022 62.295 164.341 62.295H163.243V64.257C163.243 65.0066 163.341 65.1774 163.966 65.1885H164.816C165.441 65.1885 165.584 65.1052 165.822 64.817C166.07 64.5337 166.289 64.1187 166.455 63.766L166.828 63.8597Z" fill="white"/>
</g>
<mask id="mask47_159_2192" style="mask-type:luminance" maskUnits="userSpaceOnUse" x="-118" y="-459" width="464" height="657">
<path d="M-118 -459H346V197.161H-118V-459Z" fill="white"/>
</mask>
<g mask="url(#mask47_159_2192)">
<path d="M173.129 63.7897C173.05 64.2096 172.739 65.3483 172.638 65.6553H167.393V65.2893C168.355 65.2133 168.442 65.1449 168.442 64.2328V60.0529C168.442 59.1408 168.334 59.0658 167.505 58.9936V58.6277H170.711V58.9936C169.86 59.073 169.749 59.1369 169.749 60.0529V64.3204C169.749 64.9377 169.793 65.1659 170.395 65.1769C170.412 65.184 171.009 65.1879 171.059 65.1879C171.653 65.1879 171.815 65.0804 172.071 64.796C172.299 64.5574 172.561 64.1038 172.744 63.6756L173.129 63.7897Z" fill="white"/>
</g>
<mask id="mask48_159_2192" style="mask-type:luminance" maskUnits="userSpaceOnUse" x="-118" y="-459" width="464" height="657">
<path d="M-118 -459H346V197.161H-118V-459Z" fill="white"/>
</mask>
<g mask="url(#mask48_159_2192)">
<path d="M177.38 58.9259C176.24 58.9259 175.326 59.9841 175.326 61.9362C175.326 63.8278 176.183 65.3643 177.67 65.3643C178.796 65.3643 179.66 64.3778 179.66 62.3617C179.66 60.1748 178.692 58.9259 177.38 58.9259ZM177.562 58.4767C179.509 58.4767 181.149 59.9207 181.149 62.0586C181.149 64.3695 179.529 65.8174 177.504 65.8174C175.372 65.8174 173.822 64.2395 173.822 62.1721C173.822 60.2927 175.16 58.4762 177.562 58.4762" fill="white"/>
</g>
<mask id="mask49_159_2192" style="mask-type:luminance" maskUnits="userSpaceOnUse" x="-118" y="-459" width="464" height="657">
<path d="M-118 -459H346V197.161H-118V-459Z" fill="white"/>
</mask>
<g mask="url(#mask49_159_2192)">
<path d="M184.373 62.2773C184.503 62.3424 184.745 62.3969 185.021 62.3969C185.598 62.3969 186.439 62.0784 186.439 60.6741C186.439 59.4704 185.739 59.0438 184.964 59.0438C184.706 59.0438 184.543 59.0978 184.478 59.1595C184.398 59.2284 184.373 59.3442 184.373 59.5514L184.373 62.2773ZM185.101 58.6271C185.925 58.6271 186.562 58.7748 187.005 59.078C187.505 59.4197 187.803 59.9344 187.803 60.6691C187.803 62.241 186.466 62.893 185.355 62.9001C185.243 62.9001 185.114 62.8891 185.042 62.8786L184.373 62.705V64.251C184.373 65.1592 184.449 65.1951 185.408 65.2893V65.6553H182.129V65.2893C182.982 65.1918 183.066 65.1482 183.066 64.2432V60.0562C183.066 59.1292 182.955 59.0587 182.129 58.9931V58.6271H185.101Z" fill="white"/>
</g>
<mask id="mask50_159_2192" style="mask-type:luminance" maskUnits="userSpaceOnUse" x="-118" y="-459" width="464" height="657">
<path d="M-118 -459H346V197.161H-118V-459Z" fill="white"/>
</mask>
<g mask="url(#mask50_159_2192)">
<path d="M194.362 65.6553V65.2893C195.207 65.2028 195.253 65.1311 195.249 64.0933L195.246 59.8082C194.429 61.7097 193.375 64.1275 192.736 65.6553H192.406C191.82 64.1655 190.894 61.8177 190.1 59.9025C189.945 63.4336 189.94 64.1683 189.94 64.4935C189.951 65.0848 190.187 65.2138 190.971 65.2893V65.6553H188.331V65.2893C188.952 65.2314 189.225 65.1085 189.312 64.4824C189.362 64.1055 189.394 63.5687 189.654 59.8677C189.691 59.3331 189.604 59.0796 188.666 58.9936V58.6271H190.843L193.035 63.6453L195.296 58.6271H197.441V58.9936C196.553 59.0873 196.448 59.1777 196.47 60.005L196.541 64.0933C196.563 65.1311 196.603 65.178 197.505 65.2893V65.6553H194.362Z" fill="white"/>
</g>
<mask id="mask51_159_2192" style="mask-type:luminance" maskUnits="userSpaceOnUse" x="-118" y="-459" width="464" height="657">
<path d="M-118 -459H346V197.161H-118V-459Z" fill="white"/>
</mask>
<g mask="url(#mask51_159_2192)">
<path d="M204.188 63.8597C204.13 64.1479 203.831 65.3455 203.73 65.6553H198.243V65.297C199.235 65.2072 199.303 65.1383 199.303 64.2377V60.0579C199.303 59.1237 199.177 59.0625 198.416 58.9942V58.6282H201.858C202.952 58.6282 203.346 58.6172 203.489 58.6062C203.5 58.8272 203.55 59.6875 203.594 60.3241L203.206 60.3775C203.109 60.0099 202.951 59.6423 202.79 59.4362C202.603 59.1717 202.424 59.1022 201.839 59.1022H201.023C200.638 59.1022 200.603 59.1281 200.603 59.477V61.7813H201.712C202.388 61.7813 202.478 61.6198 202.629 60.8631H203.02V63.2099H202.629C202.467 62.4173 202.381 62.295 201.7 62.295H200.603V64.257C200.603 65.0066 200.7 65.1774 201.325 65.1885H202.176C202.8 65.1885 202.943 65.1052 203.181 64.817C203.429 64.5337 203.649 64.1187 203.814 63.766L204.188 63.8597Z" fill="white"/>
</g>
<mask id="mask52_159_2192" style="mask-type:luminance" maskUnits="userSpaceOnUse" x="-118" y="-459" width="464" height="657">
<path d="M-118 -459H346V197.161H-118V-459Z" fill="white"/>
</mask>
<g mask="url(#mask52_159_2192)">
<path d="M212.376 58.994C211.705 59.0767 211.492 59.2056 211.459 59.6961C211.435 60.0913 211.406 60.4898 211.406 61.4526V65.7681H210.868L206.318 60.2743V62.8084C206.318 63.7603 206.344 64.205 206.372 64.5186C206.408 65.0207 206.65 65.239 207.443 65.2902V65.6556H204.781V65.2897C205.415 65.2357 205.682 65.0736 205.739 64.5578C205.779 64.1841 205.8 63.7603 205.8 62.8051V60.174C205.8 59.8361 205.779 59.6206 205.577 59.355C205.379 59.0849 205.13 59.0408 204.649 58.994V58.628H206.588L210.87 63.6445V61.4526C210.87 60.4892 210.855 60.0946 210.823 59.7209C210.79 59.2486 210.591 59.0486 209.704 58.994V58.628H212.376V58.994Z" fill="white"/>
</g>
<mask id="mask53_159_2192" style="mask-type:luminance" maskUnits="userSpaceOnUse" x="-118" y="-459" width="464" height="657">
<path d="M-118 -459H346V197.161H-118V-459Z" fill="white"/>
</mask>
<g mask="url(#mask53_159_2192)">
<path d="M219.116 60.4371C219.006 59.9929 218.806 59.601 218.694 59.4345C218.506 59.1843 218.413 59.1017 217.79 59.1017H216.962V64.2482C216.962 65.1333 217.062 65.2171 218.047 65.2893V65.6553H214.613V65.2893C215.562 65.2171 215.655 65.1372 215.655 64.2482V59.1017H214.883C214.281 59.1017 214.108 59.1876 213.91 59.4698C213.766 59.6792 213.638 60.0232 213.496 60.4442H213.116C213.188 59.7002 213.26 58.9137 213.285 58.3648H213.583C213.746 58.6172 213.871 58.6271 214.188 58.6271H218.498C218.794 58.6271 218.922 58.5698 219.099 58.3648H219.393C219.41 59.0455 219.445 59.7257 219.497 60.4046L219.116 60.4371Z" fill="white"/>
</g>
</g>
</g>
<defs>
<clipPath id="clip0_159_2192">
<rect width="296" height="102" fill="white"/>
</clipPath>
<clipPath id="clip1_159_2192">
<rect width="229" height="59" fill="white" transform="translate(5 21)"/>
</clipPath>
</defs>
</svg>
