<svg width="223" height="406" viewBox="0 0 223 406" fill="none" xmlns="http://www.w3.org/2000/svg">
<g clip-path="url(#clip0_931_4191)">
<path d="M173.254 114.326H151.402V329.51H173.254V114.326Z" fill="#404041"/>
<path d="M40.9643 22.2002H19.1113V329.511H40.9643V22.2002Z" fill="#404041"/>
<path d="M202.765 22.2002H180.912V329.511H202.765V22.2002Z" fill="#404041"/>
<path d="M70.5034 262.558H48.6504V285.036H70.5034V262.558Z" fill="#A68E4B"/>
<path d="M121.863 329.511H143.715V106.637H173.304V84.7772H143.715V44.0592H173.304V22.2002H121.863V188.536H48.6523V210.396H121.863V329.511Z" fill="#404041"/>
<path d="M91.1404 84.7762H70.5054V44.0582H91.1404V84.7762ZM112.993 173.61V22.2002H48.6523V106.637H49.4933V106.638H91.1404V158.988H48.6523V180.846H112.993V173.61Z" fill="#404041"/>
<path d="M114.175 329.512V218.084H48.6523V239.946H92.3233V307.653H48.6523V329.512H92.3233H114.175Z" fill="#404041"/>
<mask id="mask0_931_4191" style="mask-type:luminance" maskUnits="userSpaceOnUse" x="-96" y="-90" width="415" height="586">
<path d="M-96 -90H318.029V495.665H-96V-90Z" fill="white"/>
</mask>
<g mask="url(#mask0_931_4191)">
<path d="M26.4194 366.831C26.4194 367.387 26.1034 367.666 25.4734 367.666C24.8424 367.666 24.5274 367.387 24.5274 366.831C24.5274 366.274 24.8424 365.996 25.4734 365.996C26.1034 365.996 26.4194 366.274 26.4194 366.831ZM22.9134 366.831C22.9134 367.387 22.5954 367.666 21.9584 367.666C21.3274 367.666 21.0124 367.387 21.0124 366.831C21.0124 366.274 21.3274 365.996 21.9584 365.996C22.5954 365.996 22.9134 366.274 22.9134 366.831ZM31.4544 361.413H29.5534V357.406C29.3704 357.346 29.1794 357.315 28.9874 357.312C28.5554 357.312 28.1704 357.482 27.8334 357.819C27.4964 358.156 27.3284 358.541 27.3284 358.974V359.085C27.3334 359.129 27.3364 359.162 27.3364 359.187V362.174C27.3364 362.959 26.8924 363.673 26.0014 364.316C25.1794 364.916 24.3574 365.217 23.5354 365.217C22.5204 365.217 21.6494 364.938 20.9194 364.381C20.1284 363.775 19.7324 362.978 19.7324 361.988C19.7324 360.962 20.1874 360.077 21.0964 359.336C21.3804 359.101 21.5564 358.983 21.6244 358.983C21.6314 358.983 21.6344 358.989 21.6344 359.002V361.599C21.6344 362.056 21.8474 362.412 22.2734 362.666C22.6324 362.882 23.0524 362.99 23.5354 362.99C24.0354 362.99 24.4784 362.866 24.8614 362.619C25.2684 362.353 25.4734 361.824 25.4734 361.033C25.4734 356.846 25.4574 356.318 25.4264 359.446C25.4324 358.772 25.5284 358.189 25.7144 357.693C25.9494 357.038 26.3574 356.46 26.9384 355.959C27.2664 355.674 27.7084 355.501 28.2644 355.44C28.7654 355.384 29.2694 355.328 29.7764 355.272C30.3944 355.13 30.9534 354.821 31.4544 354.344V361.413Z" fill="#404041"/>
</g>
<mask id="mask1_931_4191" style="mask-type:luminance" maskUnits="userSpaceOnUse" x="-96" y="-90" width="415" height="586">
<path d="M-96 -90H318.029V495.665H-96V-90Z" fill="white"/>
</mask>
<g mask="url(#mask1_931_4191)">
<path d="M37.1479 362.498C37.1479 363.128 36.942 363.637 36.531 364.024C36.12 364.41 35.593 364.603 34.95 364.603C34.289 364.603 33.73 364.414 33.276 364.032C32.822 363.653 32.563 363.141 32.502 362.498H34.95V359.27C34.95 358.59 35.1509 358.091 35.5529 357.776C35.6089 357.727 36.1399 357.451 37.1479 356.951V362.498Z" fill="#404041"/>
</g>
<mask id="mask2_931_4191" style="mask-type:luminance" maskUnits="userSpaceOnUse" x="-96" y="-90" width="415" height="586">
<path d="M-96 -90H318.029V495.665H-96V-90Z" fill="white"/>
</mask>
<g mask="url(#mask2_931_4191)">
<path d="M44.1776 361.414H39.9766V348.761C40.4026 349.033 40.8266 349.305 41.2466 349.577C41.6676 349.924 41.8776 350.341 41.8776 350.829V359.187H44.1776V361.414Z" fill="#404041"/>
</g>
<mask id="mask3_931_4191" style="mask-type:luminance" maskUnits="userSpaceOnUse" x="-96" y="-90" width="415" height="586">
<path d="M-96 -90H318.029V495.665H-96V-90Z" fill="white"/>
</mask>
<g mask="url(#mask3_931_4191)">
<path d="M51.0106 351.061C51.0106 351.339 50.9226 351.567 50.7466 351.743C50.5706 351.919 50.3406 352.007 50.0556 352.007C49.7776 352.007 49.5496 351.919 49.3736 351.743C49.1976 351.566 49.1106 351.339 49.1106 351.061C49.1106 350.777 49.1976 350.546 49.3736 350.37C49.5496 350.193 49.7776 350.106 50.0556 350.106C50.3406 350.106 50.5706 350.194 50.7466 350.37C50.9226 350.546 51.0106 350.777 51.0106 351.061ZM49.4896 357.119V356.098H48.3316C47.9106 356.098 47.7006 356.28 47.7006 356.646C47.7006 356.961 47.8986 357.118 48.2946 357.118L49.4896 357.119ZM47.9696 351.061C47.9696 351.339 47.8816 351.567 47.7046 351.743C47.5286 351.919 47.3016 352.007 47.0236 352.007C46.7386 352.007 46.5096 351.919 46.3326 351.743C46.1566 351.566 46.0686 351.339 46.0686 351.061C46.0686 350.777 46.1566 350.546 46.3326 350.37C46.5096 350.193 46.7386 350.106 47.0236 350.106C47.3016 350.106 47.5286 350.194 47.7046 350.37C47.8816 350.546 47.9696 350.777 47.9696 351.061ZM52.7176 361.414H41.5156L42.8416 359.188H49.4906V358.492H47.5886C47.1126 358.492 46.7016 358.3 46.3556 357.916C46.0336 357.565 45.8576 357.103 45.8636 356.627C45.8636 356.12 46.0426 355.682 46.3976 355.315C46.7536 354.946 47.2866 354.762 47.9966 354.762C47.5396 354.762 47.9176 354.775 49.1286 354.8C49.5916 354.812 49.9786 354.775 50.2876 354.688C50.7066 354.574 51.0876 354.35 51.3906 354.039V359.188H52.7176V361.414Z" fill="#404041"/>
</g>
<mask id="mask4_931_4191" style="mask-type:luminance" maskUnits="userSpaceOnUse" x="-96" y="-90" width="415" height="586">
<path d="M-96 -90H318.029V495.665H-96V-90Z" fill="white"/>
</mask>
<g mask="url(#mask4_931_4191)">
<path d="M61.2694 361.414H50.0664L51.3924 359.188H54.8334C54.3754 358.278 54.1474 357.619 54.1474 357.212C54.1474 356.63 54.3514 356.151 54.7594 355.774C55.1544 355.415 55.6454 355.235 56.2334 355.235C56.4004 355.235 56.6504 355.243 56.9844 355.259C57.2344 355.272 57.4854 355.279 57.7354 355.282C58.7124 355.282 59.2624 355.193 59.3864 355.013L59.9424 354.215V357.462H56.5764C56.3844 357.462 56.2884 357.564 56.2884 357.768C56.2884 358.071 56.4334 358.383 56.7204 358.705C57.0074 359.026 57.3034 359.187 57.6054 359.187H61.2694V361.414Z" fill="#404041"/>
</g>
<mask id="mask5_931_4191" style="mask-type:luminance" maskUnits="userSpaceOnUse" x="-96" y="-90" width="415" height="586">
<path d="M-96 -90H318.029V495.665H-96V-90Z" fill="white"/>
</mask>
<g mask="url(#mask5_931_4191)">
<path d="M64.6892 360.467C64.6892 360.727 64.5972 360.95 64.4112 361.135C64.3252 361.225 64.2212 361.296 64.1062 361.343C63.9912 361.391 63.8682 361.415 63.7442 361.413H58.6152L59.9422 359.187H62.7892V350.885C62.7892 350.359 62.9862 349.929 63.3822 349.595C63.8152 349.317 64.2502 349.039 64.6892 348.761V360.467Z" fill="#404041"/>
</g>
<mask id="mask6_931_4191" style="mask-type:luminance" maskUnits="userSpaceOnUse" x="-96" y="-90" width="415" height="586">
<path d="M-96 -90H318.029V495.665H-96V-90Z" fill="white"/>
</mask>
<g mask="url(#mask6_931_4191)">
<path d="M69.4381 361.414H67.5371V350.931C67.5371 350.431 67.7471 349.998 68.1681 349.633C68.5941 349.342 69.0191 349.051 69.4381 348.761V361.414Z" fill="#404041"/>
</g>
<mask id="mask7_931_4191" style="mask-type:luminance" maskUnits="userSpaceOnUse" x="-96" y="-90" width="415" height="586">
<path d="M-96 -90H318.029V495.665H-96V-90Z" fill="white"/>
</mask>
<g mask="url(#mask7_931_4191)">
<path d="M82.3564 361.412H79.8804V362.497C79.8804 363.115 79.6684 363.636 79.2454 364.06C78.8214 364.483 78.3014 364.696 77.6824 364.696C77.0464 364.696 76.4924 364.485 76.0224 364.065C75.5534 363.644 75.2894 363.122 75.2344 362.497H77.6824V359.269C77.6824 358.589 77.8834 358.091 78.2854 357.775C78.3414 357.726 78.8734 357.451 79.8804 356.95V359.186H82.3564V361.412Z" fill="#404041"/>
</g>
<mask id="mask8_931_4191" style="mask-type:luminance" maskUnits="userSpaceOnUse" x="-96" y="-90" width="415" height="586">
<path d="M-96 -90H318.029V495.665H-96V-90Z" fill="white"/>
</mask>
<g mask="url(#mask8_931_4191)">
<path d="M88.3293 364.169C88.3293 364.447 88.2423 364.674 88.0693 364.851C87.8963 365.027 87.6673 365.115 87.3823 365.115C87.1053 365.115 86.8773 365.027 86.7013 364.851C86.5253 364.674 86.4373 364.447 86.4373 364.169C86.4373 363.891 86.5253 363.664 86.7013 363.487C86.8783 363.311 87.1053 363.222 87.3823 363.222C87.6673 363.222 87.8963 363.311 88.0693 363.487C88.2423 363.664 88.3293 363.891 88.3293 364.169ZM85.1013 364.169C85.1013 364.447 85.0133 364.674 84.8373 364.851C84.6613 365.027 84.4343 365.115 84.1563 365.115C83.8713 365.115 83.6423 365.027 83.4693 364.851C83.2963 364.674 83.2103 364.447 83.2103 364.169C83.2103 363.891 83.2963 363.664 83.4693 363.487C83.6423 363.311 83.8713 363.222 84.1563 363.222C84.4343 363.222 84.6613 363.311 84.8373 363.487C85.0143 363.664 85.1013 363.891 85.1013 364.169ZM88.6163 360.467C88.6163 360.696 88.5033 360.911 88.2773 361.112C88.0523 361.314 87.8253 361.413 87.5963 361.413H79.6953L81.0223 359.188H86.7163C86.7163 358.007 86.7833 357.295 86.9203 357.054C87.0433 356.838 87.6093 356.392 88.6163 355.718V360.467Z" fill="#404041"/>
</g>
<mask id="mask9_931_4191" style="mask-type:luminance" maskUnits="userSpaceOnUse" x="-96" y="-90" width="415" height="586">
<path d="M-96 -90H318.029V495.665H-96V-90Z" fill="white"/>
</mask>
<g mask="url(#mask9_931_4191)">
<path d="M95.2459 359.187V357.313C94.8069 357.313 94.4229 357.472 94.0919 357.79C93.7609 358.11 93.5959 358.488 93.5959 358.927C93.5959 359.001 93.6019 359.087 93.6149 359.187H95.2459ZM99.6329 361.412H97.1659C97.1659 361.536 97.1709 361.727 97.1799 361.983C97.1889 362.24 97.1939 362.436 97.1939 362.572C97.1939 363.63 96.8819 364.347 96.2569 364.724C95.6639 365.089 95.0729 365.272 94.4859 365.272C93.8369 365.272 93.1849 365.061 92.5299 364.641C92.0599 364.344 91.7939 363.787 91.7319 362.971H95.2649V361.412H91.7129V359.437C91.7129 357.73 92.3059 356.491 93.4939 355.717C93.8219 355.501 94.3009 355.362 94.9309 355.3C95.5929 355.226 96.0069 355.142 96.1739 355.049L97.1659 354.502V359.187H99.6329V361.412Z" fill="#404041"/>
</g>
<mask id="mask10_931_4191" style="mask-type:luminance" maskUnits="userSpaceOnUse" x="-96" y="-90" width="415" height="586">
<path d="M-96 -90H318.029V495.665H-96V-90Z" fill="white"/>
</mask>
<g mask="url(#mask10_931_4191)">
<path d="M104.371 361.414H96.9707L98.2967 359.188H104.371V361.414Z" fill="#404041"/>
</g>
<mask id="mask11_931_4191" style="mask-type:luminance" maskUnits="userSpaceOnUse" x="-96" y="-90" width="415" height="586">
<path d="M-96 -90H318.029V495.665H-96V-90Z" fill="white"/>
</mask>
<g mask="url(#mask11_931_4191)">
<path d="M115.388 359.186V358.37C115.388 358.116 115.258 357.906 114.998 357.739C114.775 357.592 114.514 357.515 114.247 357.516H107.162V359.186H115.388ZM118.615 361.412H101.719L103.045 359.186H105.289V350.735C105.289 350.222 105.483 349.811 105.873 349.502C106.306 349.255 106.735 349.007 107.161 348.76V356.431C107.675 355.813 108.272 355.504 108.951 355.504H115.388C115.858 355.504 116.281 355.673 116.658 356.013C116.955 356.279 117.131 356.465 117.187 356.57C117.255 356.706 117.289 356.965 117.289 357.349V359.186H118.615V361.412Z" fill="#404041"/>
</g>
<mask id="mask12_931_4191" style="mask-type:luminance" maskUnits="userSpaceOnUse" x="-96" y="-90" width="415" height="586">
<path d="M-96 -90H318.029V495.665H-96V-90Z" fill="white"/>
</mask>
<g mask="url(#mask12_931_4191)">
<path d="M124.504 352.768C124.504 353.053 124.415 353.283 124.239 353.459C124.063 353.636 123.836 353.723 123.558 353.723C123.273 353.723 123.043 353.636 122.867 353.459C122.691 353.283 122.602 353.053 122.602 352.768C122.602 352.49 122.691 352.263 122.867 352.086C123.043 351.911 123.273 351.822 123.558 351.822C123.836 351.822 124.063 351.911 124.239 352.086C124.415 352.263 124.504 352.49 124.504 352.768ZM121.277 352.768C121.277 353.053 121.189 353.283 121.012 353.459C120.836 353.636 120.609 353.723 120.33 353.723C120.046 353.723 119.816 353.636 119.639 353.459C119.463 353.283 119.375 353.053 119.375 352.768C119.375 352.49 119.463 352.263 119.639 352.086C119.816 351.911 120.046 351.822 120.33 351.822C120.609 351.822 120.836 351.911 121.012 352.086C121.189 352.263 121.277 352.49 121.277 352.768ZM126.238 361.414H115.963L117.289 359.188H122.983C122.983 358.006 123.05 357.298 123.187 357.062C123.304 356.84 123.87 356.392 124.883 355.718V359.188H126.238V361.414Z" fill="#404041"/>
</g>
<mask id="mask13_931_4191" style="mask-type:luminance" maskUnits="userSpaceOnUse" x="-96" y="-90" width="415" height="586">
<path d="M-96 -90H318.029V495.665H-96V-90Z" fill="white"/>
</mask>
<g mask="url(#mask13_931_4191)">
<path d="M130.959 361.414H123.559L124.884 359.188H130.959V361.414Z" fill="#404041"/>
</g>
<mask id="mask14_931_4191" style="mask-type:luminance" maskUnits="userSpaceOnUse" x="-96" y="-90" width="415" height="586">
<path d="M-96 -90H318.029V495.665H-96V-90Z" fill="white"/>
</mask>
<g mask="url(#mask14_931_4191)">
<path d="M135.707 361.414H128.307L129.632 359.188H132.48V350.885C132.48 350.359 132.678 349.93 133.074 349.596C133.506 349.318 133.942 349.039 134.381 348.761V359.188H135.707V361.414Z" fill="#404041"/>
</g>
<mask id="mask15_931_4191" style="mask-type:luminance" maskUnits="userSpaceOnUse" x="-96" y="-90" width="415" height="586">
<path d="M-96 -90H318.029V495.665H-96V-90Z" fill="white"/>
</mask>
<g mask="url(#mask15_931_4191)">
<path d="M139.129 360.467C139.129 360.727 139.036 360.95 138.851 361.135C138.764 361.225 138.661 361.296 138.546 361.343C138.431 361.391 138.307 361.415 138.183 361.413H133.055L134.381 359.187H137.228V350.885C137.228 350.359 137.426 349.929 137.822 349.595C138.254 349.317 138.69 349.039 139.129 348.761V360.467Z" fill="#404041"/>
</g>
<mask id="mask16_931_4191" style="mask-type:luminance" maskUnits="userSpaceOnUse" x="-96" y="-90" width="415" height="586">
<path d="M-96 -90H318.029V495.665H-96V-90Z" fill="white"/>
</mask>
<g mask="url(#mask16_931_4191)">
<path d="M149.348 355.615C149.348 355.899 149.259 356.129 149.083 356.305C148.907 356.482 148.677 356.57 148.393 356.57C148.114 356.57 147.886 356.482 147.711 356.305C147.534 356.129 147.446 355.899 147.446 355.615C147.446 355.336 147.534 355.109 147.711 354.933C147.887 354.756 148.114 354.668 148.393 354.668C148.677 354.668 148.907 354.756 149.083 354.933C149.259 355.109 149.348 355.336 149.348 355.615ZM152.426 361.412C152.426 362.445 152.046 363.339 151.285 364.093C150.526 364.848 149.628 365.224 148.596 365.224C147.601 365.224 146.738 364.943 146.009 364.38C145.217 363.774 144.822 362.989 144.822 362.024C144.822 360.813 145.208 360.058 145.981 359.761L146.185 361.32C146.297 361.913 146.479 362.359 146.732 362.655C147.047 363.033 147.517 363.221 148.142 363.221C148.686 363.221 149.151 363.057 149.538 362.729C149.924 362.401 150.117 361.879 150.117 361.162C150.117 360.982 150.099 360.655 150.061 360.178C150.024 359.765 150.012 359.445 150.024 359.223C150.043 358.883 150.108 358.598 150.219 358.37C150.38 358.042 150.603 357.817 150.887 357.693L152.426 356.987V361.412Z" fill="#404041"/>
</g>
<mask id="mask17_931_4191" style="mask-type:luminance" maskUnits="userSpaceOnUse" x="-96" y="-90" width="415" height="586">
<path d="M-96 -90H318.029V495.665H-96V-90Z" fill="white"/>
</mask>
<g mask="url(#mask17_931_4191)">
<path d="M157.175 361.414H155.273V350.931C155.273 350.431 155.483 349.998 155.904 349.633C156.331 349.342 156.755 349.051 157.175 348.761V361.414Z" fill="#404041"/>
</g>
<mask id="mask18_931_4191" style="mask-type:luminance" maskUnits="userSpaceOnUse" x="-96" y="-90" width="415" height="586">
<path d="M-96 -90H318.029V495.665H-96V-90Z" fill="white"/>
</mask>
<g mask="url(#mask18_931_4191)">
<path d="M163.805 359.187V357.313C163.366 357.313 162.981 357.472 162.65 357.79C162.319 358.11 162.155 358.488 162.155 358.927C162.155 359.001 162.16 359.087 162.173 359.187H163.805ZM165.724 362.971C165.724 363.683 165.449 364.251 164.9 364.678C164.399 365.074 163.781 365.272 163.046 365.272C162.396 365.272 161.744 365.061 161.089 364.641C160.619 364.344 160.352 363.787 160.291 362.971H163.824V361.412H160.271V359.437C160.271 357.73 160.865 356.491 162.053 355.717C162.361 355.513 162.834 355.377 163.471 355.308C164.132 355.235 164.553 355.149 164.732 355.05L165.724 354.502V362.971Z" fill="#404041"/>
</g>
<mask id="mask19_931_4191" style="mask-type:luminance" maskUnits="userSpaceOnUse" x="-96" y="-90" width="415" height="586">
<path d="M-96 -90H318.029V495.665H-96V-90Z" fill="white"/>
</mask>
<g mask="url(#mask19_931_4191)">
<path d="M176.548 361.414H167.701V359.188H173.321V358.009C173.321 357.836 173.229 357.677 173.047 357.531C172.865 357.386 172.684 357.313 172.504 357.313H168.767V354.438C168.91 354.685 169.12 354.905 169.398 355.096C169.701 355.307 169.982 355.412 170.242 355.412H173.321C173.877 355.412 174.333 355.588 174.689 355.94C175.044 356.293 175.222 356.723 175.222 357.229V359.187H176.548V361.414Z" fill="#404041"/>
</g>
<mask id="mask20_931_4191" style="mask-type:luminance" maskUnits="userSpaceOnUse" x="-96" y="-90" width="415" height="586">
<path d="M-96 -90H318.029V495.665H-96V-90Z" fill="white"/>
</mask>
<g mask="url(#mask20_931_4191)">
<path d="M181.297 361.414H173.896L175.222 359.188H181.296L181.297 361.414Z" fill="#404041"/>
</g>
<mask id="mask21_931_4191" style="mask-type:luminance" maskUnits="userSpaceOnUse" x="-96" y="-90" width="415" height="586">
<path d="M-96 -90H318.029V495.665H-96V-90Z" fill="white"/>
</mask>
<g mask="url(#mask21_931_4191)">
<path d="M186.043 361.414H178.643L179.968 359.188H186.043V361.414Z" fill="#404041"/>
</g>
<mask id="mask22_931_4191" style="mask-type:luminance" maskUnits="userSpaceOnUse" x="-96" y="-90" width="415" height="586">
<path d="M-96 -90H318.029V495.665H-96V-90Z" fill="white"/>
</mask>
<g mask="url(#mask22_931_4191)">
<path d="M194.593 361.414H183.391L184.717 359.188H188.157C187.7 358.278 187.471 357.619 187.471 357.212C187.471 356.63 187.675 356.151 188.083 355.774C188.478 355.415 188.97 355.235 189.558 355.235C189.725 355.235 189.974 355.243 190.309 355.259C190.559 355.272 190.809 355.279 191.06 355.282C192.037 355.282 192.587 355.193 192.71 355.013L193.267 354.215V357.462H189.9C189.709 357.462 189.613 357.564 189.613 357.768C189.613 358.071 189.757 358.383 190.044 358.705C190.332 359.026 190.627 359.187 190.93 359.187H194.593V361.414Z" fill="#404041"/>
</g>
<mask id="mask23_931_4191" style="mask-type:luminance" maskUnits="userSpaceOnUse" x="-96" y="-90" width="415" height="586">
<path d="M-96 -90H318.029V495.665H-96V-90Z" fill="white"/>
</mask>
<g mask="url(#mask23_931_4191)">
<path d="M198.015 360.467C198.015 360.727 197.923 360.95 197.737 361.135C197.651 361.225 197.547 361.295 197.432 361.343C197.317 361.391 197.194 361.415 197.07 361.413H191.941L193.268 359.187H196.114V350.885C196.114 350.359 196.312 349.929 196.708 349.595C197.141 349.317 197.576 349.039 198.015 348.761V360.467Z" fill="#404041"/>
</g>
<mask id="mask24_931_4191" style="mask-type:luminance" maskUnits="userSpaceOnUse" x="-96" y="-90" width="415" height="586">
<path d="M-96 -90H318.029V495.665H-96V-90Z" fill="white"/>
</mask>
<g mask="url(#mask24_931_4191)">
<path d="M202.765 361.414H200.863V350.931C200.863 350.431 201.073 349.998 201.494 349.633C201.92 349.342 202.344 349.051 202.765 348.761V361.414Z" fill="#404041"/>
</g>
<mask id="mask25_931_4191" style="mask-type:luminance" maskUnits="userSpaceOnUse" x="-96" y="-90" width="415" height="586">
<path d="M-96 -90H318.029V495.665H-96V-90Z" fill="white"/>
</mask>
<g mask="url(#mask25_931_4191)">
<path d="M22.9925 373.489C22.7015 374.231 22.4115 374.959 22.1535 375.683H23.7825L22.9925 373.489ZM23.8816 378.288V377.961C24.4966 377.877 24.5235 377.774 24.3885 377.377C24.2815 377.057 24.1135 376.606 23.9485 376.142H21.9966C21.8736 376.489 21.7355 376.859 21.6245 377.192C21.4185 377.806 21.6165 377.883 22.3895 377.961V378.288H20.0605V377.961C20.6675 377.884 20.8225 377.804 21.1535 376.972L23.1575 371.956L23.5656 371.88C24.1806 373.549 24.8395 375.304 25.4595 376.936C25.8005 377.813 25.8876 377.884 26.5346 377.961V378.288H23.8816Z" fill="#404041"/>
</g>
<mask id="mask26_931_4191" style="mask-type:luminance" maskUnits="userSpaceOnUse" x="-96" y="-90" width="415" height="586">
<path d="M-96 -90H318.029V495.665H-96V-90Z" fill="white"/>
</mask>
<g mask="url(#mask26_931_4191)">
<path d="M31.9188 376.622C31.8488 376.997 31.5718 378.014 31.4818 378.288H26.8008V377.961C27.6598 377.893 27.7368 377.832 27.7368 377.018V373.287C27.7368 372.473 27.6408 372.406 26.8998 372.342V372.015H29.7618V372.342C29.0028 372.413 28.9028 372.47 28.9028 373.287V377.096C28.9028 377.647 28.9418 377.851 29.4798 377.861C29.4948 377.867 30.0268 377.87 30.0728 377.87C30.6018 377.87 30.7468 377.775 30.9748 377.521C31.1788 377.308 31.4128 376.903 31.5758 376.521L31.9188 376.622Z" fill="#404041"/>
</g>
<mask id="mask27_931_4191" style="mask-type:luminance" maskUnits="userSpaceOnUse" x="-96" y="-90" width="415" height="586">
<path d="M-96 -90H318.029V495.665H-96V-90Z" fill="white"/>
</mask>
<g mask="url(#mask27_931_4191)">
<path d="M35.2621 373.489C34.9721 374.231 34.6821 374.959 34.4241 375.683H36.0521L35.2621 373.489ZM36.1521 378.288V377.961C36.7661 377.877 36.7941 377.774 36.6581 377.377C36.5521 377.057 36.3841 376.606 36.2191 376.142H34.2661C34.1431 376.489 34.0051 376.859 33.8951 377.192C33.6881 377.806 33.8871 377.883 34.6591 377.961V378.288H32.3301V377.961C32.9381 377.884 33.0921 377.804 33.4241 376.972L35.4271 371.956L35.8361 371.88C36.4501 373.549 37.1091 375.304 37.7301 376.936C38.0701 377.813 38.1571 377.884 38.8041 377.961V378.288H36.1521Z" fill="#404041"/>
</g>
<mask id="mask28_931_4191" style="mask-type:luminance" maskUnits="userSpaceOnUse" x="-96" y="-90" width="415" height="586">
<path d="M-96 -90H318.029V495.665H-96V-90Z" fill="white"/>
</mask>
<g mask="url(#mask28_931_4191)">
<path d="M41.1719 376.948C41.1719 377.646 41.3929 377.867 42.1039 377.867C43.5589 377.867 44.3589 376.862 44.3589 375.086C44.3589 374.122 44.0709 373.321 43.5159 372.889C43.0969 372.528 42.5749 372.403 41.9279 372.403C41.5439 372.403 41.3569 372.473 41.2849 372.538C41.1989 372.614 41.1719 372.758 41.1719 373.072V376.948ZM42.0339 372.015C43.3129 372.015 44.2029 372.279 44.8139 372.854C45.2989 373.311 45.6639 373.987 45.6639 374.944C45.6639 376.061 45.2019 376.934 44.4589 377.494C43.7379 378.038 42.8149 378.288 41.6849 378.288H39.1699V377.961C39.9369 377.896 40.0069 377.816 40.0069 377.018V373.287C40.0069 372.47 39.8979 372.406 39.1699 372.341V372.015H42.0339Z" fill="#404041"/>
</g>
<mask id="mask29_931_4191" style="mask-type:luminance" maskUnits="userSpaceOnUse" x="-96" y="-90" width="415" height="586">
<path d="M-96 -90H318.029V495.665H-96V-90Z" fill="white"/>
</mask>
<g mask="url(#mask29_931_4191)">
<path d="M55.3466 372.342C54.6586 372.432 54.5436 372.553 54.2766 373.344C54.0016 374.165 53.2606 376.51 52.6806 378.394H52.2146C51.7186 376.964 51.1357 375.384 50.6017 373.943C50.0807 375.471 49.5677 376.965 49.0977 378.394H48.6216C48.2026 376.929 47.6086 374.998 47.0746 373.298C46.8306 372.546 46.6997 372.403 46.0977 372.342V372.015H48.8257V372.342C48.1057 372.413 48.0856 372.544 48.2206 373.039C48.5596 374.217 48.9136 375.4 49.2596 376.56C49.7646 375.138 50.2686 373.603 50.7296 372.077H51.1696C51.7036 373.611 52.2496 375.079 52.7906 376.569C53.1646 375.442 53.6586 373.794 53.8206 373.142C53.9586 372.577 53.8686 372.42 53.0426 372.342V372.015H55.3466V372.342Z" fill="#404041"/>
</g>
<mask id="mask30_931_4191" style="mask-type:luminance" maskUnits="userSpaceOnUse" x="-96" y="-90" width="415" height="586">
<path d="M-96 -90H318.029V495.665H-96V-90Z" fill="white"/>
</mask>
<g mask="url(#mask30_931_4191)">
<path d="M57.2836 373.489C56.9926 374.231 56.7026 374.959 56.4446 375.683H58.0736L57.2836 373.489ZM58.1726 378.288V377.961C58.7876 377.877 58.8146 377.774 58.6796 377.377C58.5726 377.057 58.4046 376.606 58.2396 376.142H56.2876C56.1646 376.489 56.0266 376.859 55.9156 377.192C55.7096 377.806 55.9076 377.883 56.6806 377.961V378.288H54.3516V377.961C54.9586 377.884 55.1136 377.804 55.4446 376.972L57.4486 371.956L57.8566 371.88C58.4716 373.549 59.1306 375.304 59.7506 376.936C60.0916 377.813 60.1786 377.884 60.8256 377.961V378.288H58.1726Z" fill="#404041"/>
</g>
<mask id="mask31_931_4191" style="mask-type:luminance" maskUnits="userSpaceOnUse" x="-96" y="-90" width="415" height="586">
<path d="M-96 -90H318.029V495.665H-96V-90Z" fill="white"/>
</mask>
<g mask="url(#mask31_931_4191)">
<path d="M67.896 372.341C67.297 372.415 67.107 372.53 67.078 372.968C67.056 373.32 67.03 373.676 67.03 374.535V378.387H66.5509L62.491 373.484V375.746C62.491 376.595 62.513 376.992 62.539 377.272C62.57 377.72 62.787 377.915 63.494 377.961V378.287H61.118V377.96C61.685 377.912 61.923 377.767 61.974 377.307C62.009 376.973 62.028 376.595 62.028 375.743V373.394C62.028 373.093 62.0089 372.9 61.8289 372.663C61.6519 372.422 61.431 372.383 61.002 372.341V372.014H62.731L66.552 376.492V374.535C66.552 373.676 66.5389 373.323 66.5099 372.99C66.4809 372.568 66.3029 372.39 65.5119 372.341V372.014H67.896V372.341Z" fill="#404041"/>
</g>
<mask id="mask32_931_4191" style="mask-type:luminance" maskUnits="userSpaceOnUse" x="-96" y="-90" width="415" height="586">
<path d="M-96 -90H318.029V495.665H-96V-90Z" fill="white"/>
</mask>
<g mask="url(#mask32_931_4191)">
<path d="M72.9458 375.205C73.3918 375.205 73.7098 375.134 73.9318 374.944C74.2708 374.67 74.4128 374.297 74.4128 373.794C74.4128 372.768 73.7898 372.397 73.1788 372.397C72.9118 372.397 72.7728 372.437 72.7118 372.495C72.6368 372.556 72.6148 372.665 72.6148 372.878V375.205H72.9458ZM76.5808 378.354C76.4998 378.354 76.3878 378.351 76.2678 378.341C75.2258 378.286 74.8618 378.053 74.5248 377.58C74.1498 377.063 73.8458 376.467 73.5238 375.918C73.3628 375.641 73.2308 375.583 72.8588 375.583L72.6148 375.577V377.023C72.6148 377.818 72.7148 377.879 73.4548 377.962V378.289H70.6348V377.962C71.3918 377.882 71.4708 377.818 71.4708 377.023V373.273C71.4708 372.49 71.3708 372.411 70.6348 372.343V372.017H73.3148C74.1188 372.017 74.6038 372.109 74.9898 372.369C75.3788 372.626 75.6388 373.054 75.6388 373.65C75.6388 374.498 75.0838 374.975 74.4198 375.247C74.5738 375.54 74.9638 376.174 75.2538 376.614C75.5978 377.138 75.7998 377.392 75.9968 377.615C76.2328 377.875 76.3788 377.963 76.6388 378.046L76.5808 378.354Z" fill="#404041"/>
</g>
<mask id="mask33_931_4191" style="mask-type:luminance" maskUnits="userSpaceOnUse" x="-96" y="-90" width="415" height="586">
<path d="M-96 -90H318.029V495.665H-96V-90Z" fill="white"/>
</mask>
<g mask="url(#mask33_931_4191)">
<path d="M82.1663 376.685C82.1143 376.942 81.8483 378.011 81.7573 378.288H76.8613V377.968C77.7463 377.888 77.8083 377.826 77.8083 377.022V373.292C77.8083 372.458 77.6943 372.403 77.0153 372.342V372.016H80.0863C81.0633 372.016 81.4143 372.006 81.5423 371.996C81.5523 372.193 81.5963 372.961 81.6353 373.529L81.2893 373.577C81.2023 373.249 81.0623 372.921 80.9193 372.737C80.7513 372.501 80.5923 372.439 80.0703 372.439H79.3413C78.9993 372.439 78.9673 372.462 78.9673 372.773V374.83H79.9563C80.5613 374.83 80.6403 374.686 80.7743 374.01H81.1243V376.105H80.7743C80.6303 375.398 80.5533 375.288 79.9463 375.288H78.9673V377.04C78.9673 377.709 79.0543 377.861 79.6113 377.871H80.3703C80.9273 377.871 81.0553 377.797 81.2683 377.539C81.4893 377.287 81.6853 376.916 81.8323 376.601L82.1663 376.685Z" fill="#404041"/>
</g>
<mask id="mask34_931_4191" style="mask-type:luminance" maskUnits="userSpaceOnUse" x="-96" y="-90" width="415" height="586">
<path d="M-96 -90H318.029V495.665H-96V-90Z" fill="white"/>
</mask>
<g mask="url(#mask34_931_4191)">
<path d="M85.3812 373.489C85.0912 374.231 84.8002 374.959 84.5432 375.683H86.1722L85.3812 373.489ZM86.2712 378.288V377.961C86.8862 377.877 86.9132 377.774 86.7772 377.377C86.6712 377.057 86.5032 376.606 86.3382 376.142H84.3852C84.2622 376.489 84.1242 376.859 84.0142 377.192C83.8082 377.806 84.0062 377.883 84.7782 377.961V378.288H82.4492V377.961C83.0572 377.884 83.2112 377.804 83.5432 376.972L85.5462 371.956L85.9552 371.88C86.5692 373.549 87.2282 375.304 87.8492 376.936C88.1892 377.813 88.2762 377.884 88.9242 377.961V378.288H86.2712Z" fill="#404041"/>
</g>
<mask id="mask35_931_4191" style="mask-type:luminance" maskUnits="userSpaceOnUse" x="-96" y="-90" width="415" height="586">
<path d="M-96 -90H318.029V495.665H-96V-90Z" fill="white"/>
</mask>
<g mask="url(#mask35_931_4191)">
<path d="M94.3055 376.622C94.2355 376.997 93.9575 378.014 93.8675 378.288H89.1875V377.961C90.0465 377.893 90.1235 377.832 90.1235 377.018V373.287C90.1235 372.473 90.0265 372.406 89.2865 372.342V372.015H92.1485V372.342C91.3885 372.413 91.2885 372.47 91.2885 373.287V377.096C91.2885 377.647 91.3285 377.851 91.8655 377.861C91.8815 377.867 92.4135 377.87 92.4585 377.87C92.9885 377.87 93.1335 377.775 93.3615 377.521C93.5645 377.308 93.7985 376.903 93.9625 376.521L94.3055 376.622Z" fill="#404041"/>
</g>
<mask id="mask36_931_4191" style="mask-type:luminance" maskUnits="userSpaceOnUse" x="-96" y="-90" width="415" height="586">
<path d="M-96 -90H318.029V495.665H-96V-90Z" fill="white"/>
</mask>
<g mask="url(#mask36_931_4191)">
<path d="M102.248 376.685C102.196 376.942 101.93 378.011 101.839 378.288H96.9434V377.968C97.8294 377.888 97.8904 377.826 97.8904 377.022V373.292C97.8904 372.458 97.7774 372.403 97.0984 372.342V372.016H100.168C101.145 372.016 101.496 372.006 101.624 371.996C101.634 372.193 101.679 372.961 101.718 373.529L101.371 373.577C101.284 373.249 101.144 372.921 101.001 372.737C100.833 372.501 100.674 372.439 100.152 372.439H99.4244C99.0814 372.439 99.0494 372.462 99.0494 372.773V374.83H100.038C100.643 374.83 100.722 374.686 100.856 374.01H101.206V376.105H100.856C100.712 375.398 100.635 375.288 100.028 375.288H99.0494V377.04C99.0494 377.709 99.1364 377.861 99.6934 377.871H100.452C101.009 377.871 101.137 377.797 101.35 377.539C101.571 377.287 101.767 376.916 101.914 376.601L102.248 376.685Z" fill="#404041"/>
</g>
<mask id="mask37_931_4191" style="mask-type:luminance" maskUnits="userSpaceOnUse" x="-96" y="-90" width="415" height="586">
<path d="M-96 -90H318.029V495.665H-96V-90Z" fill="white"/>
</mask>
<g mask="url(#mask37_931_4191)">
<path d="M106.464 373.564C106.281 372.94 106.011 372.263 105.116 372.263C104.49 372.263 104.16 372.712 104.16 373.239C104.16 373.817 104.541 374.143 105.373 374.564C106.449 375.105 107.051 375.587 107.051 376.529C107.051 377.624 106.129 378.433 104.797 378.433C104.193 378.433 103.66 378.27 103.227 378.128C103.162 377.889 103.015 377.007 102.947 376.529L103.296 376.446C103.49 377.068 103.989 378.045 104.955 378.045C105.581 378.045 105.961 377.638 105.961 377.017C105.961 376.393 105.597 376.075 104.773 375.631C103.767 375.087 103.141 374.611 103.141 373.645C103.141 372.685 103.905 371.881 105.292 371.881C105.913 371.881 106.425 372.026 106.634 372.058C106.673 372.412 106.73 372.873 106.807 373.488L106.464 373.564Z" fill="#404041"/>
</g>
<mask id="mask38_931_4191" style="mask-type:luminance" maskUnits="userSpaceOnUse" x="-96" y="-90" width="415" height="586">
<path d="M-96 -90H318.029V495.665H-96V-90Z" fill="white"/>
</mask>
<g mask="url(#mask38_931_4191)">
<path d="M113.044 373.63C112.944 373.234 112.766 372.884 112.666 372.735C112.499 372.512 112.415 372.438 111.859 372.438H111.12V377.032C111.12 377.822 111.21 377.897 112.089 377.961V378.288H109.024V377.961C109.871 377.897 109.955 377.825 109.955 377.032V372.438H109.265C108.728 372.438 108.574 372.515 108.397 372.767C108.269 372.954 108.154 373.261 108.029 373.636H107.689C107.753 372.972 107.817 372.27 107.84 371.78H108.105C108.25 372.006 108.363 372.015 108.645 372.015H112.491C112.755 372.015 112.87 371.963 113.027 371.78H113.29C113.296 372.202 113.335 372.997 113.383 373.601L113.044 373.63Z" fill="#404041"/>
</g>
<mask id="mask39_931_4191" style="mask-type:luminance" maskUnits="userSpaceOnUse" x="-96" y="-90" width="415" height="586">
<path d="M-96 -90H318.029V495.665H-96V-90Z" fill="white"/>
</mask>
<g mask="url(#mask39_931_4191)">
<path d="M115.862 373.489C115.572 374.231 115.281 374.959 115.023 375.683H116.652L115.862 373.489ZM116.751 378.288V377.961C117.366 377.877 117.393 377.774 117.258 377.377C117.151 377.057 116.983 376.606 116.818 376.142H114.866C114.743 376.489 114.605 376.859 114.495 377.192C114.288 377.806 114.486 377.883 115.259 377.961V378.288H112.93V377.961C113.538 377.884 113.692 377.804 114.023 376.972L116.027 371.956L116.435 371.88C117.05 373.549 117.709 375.304 118.329 376.936C118.67 377.813 118.757 377.884 119.404 377.961V378.288H116.751Z" fill="#404041"/>
</g>
<mask id="mask40_931_4191" style="mask-type:luminance" maskUnits="userSpaceOnUse" x="-96" y="-90" width="415" height="586">
<path d="M-96 -90H318.029V495.665H-96V-90Z" fill="white"/>
</mask>
<g mask="url(#mask40_931_4191)">
<path d="M124.231 373.63C124.132 373.234 123.953 372.884 123.853 372.735C123.686 372.512 123.603 372.438 123.047 372.438H122.308V377.032C122.308 377.822 122.398 377.897 123.276 377.961V378.288H120.212V377.961C121.059 377.897 121.142 377.825 121.142 377.032V372.438H120.452C119.915 372.438 119.761 372.515 119.585 372.767C119.457 372.954 119.341 373.261 119.216 373.636H118.877C118.941 372.972 119.005 372.27 119.027 371.78H119.293C119.438 372.006 119.55 372.015 119.833 372.015H123.679C123.942 372.015 124.057 371.963 124.215 371.78H124.477C124.484 372.202 124.522 372.997 124.571 373.601L124.231 373.63Z" fill="#404041"/>
</g>
<mask id="mask41_931_4191" style="mask-type:luminance" maskUnits="userSpaceOnUse" x="-96" y="-90" width="415" height="586">
<path d="M-96 -90H318.029V495.665H-96V-90Z" fill="white"/>
</mask>
<g mask="url(#mask41_931_4191)">
<path d="M130.48 376.685C130.429 376.942 130.162 378.011 130.071 378.288H125.176V377.968C126.061 377.888 126.121 377.826 126.121 377.022V373.292C126.121 372.458 126.009 372.403 125.33 372.342V372.016H128.401C129.377 372.016 129.728 372.006 129.857 371.996C129.866 372.193 129.911 372.961 129.95 373.529L129.604 373.577C129.517 373.249 129.377 372.921 129.233 372.737C129.066 372.501 128.906 372.439 128.384 372.439H127.656C127.313 372.439 127.281 372.462 127.281 372.773V374.83H128.271C128.875 374.83 128.954 374.686 129.089 374.01H129.438V376.105H129.089C128.945 375.398 128.868 375.288 128.261 375.288H127.281V377.04C127.281 377.709 127.368 377.861 127.925 377.871H128.685C129.242 377.871 129.37 377.797 129.582 377.539C129.803 377.287 129.999 376.916 130.147 376.601L130.48 376.685Z" fill="#404041"/>
</g>
<mask id="mask42_931_4191" style="mask-type:luminance" maskUnits="userSpaceOnUse" x="-96" y="-90" width="415" height="586">
<path d="M-96 -90H318.029V495.665H-96V-90Z" fill="white"/>
</mask>
<g mask="url(#mask42_931_4191)">
<path d="M135.254 376.948C135.254 377.646 135.475 377.867 136.186 377.867C137.641 377.867 138.441 376.862 138.441 375.086C138.441 374.122 138.153 373.321 137.598 372.889C137.179 372.528 136.657 372.403 136.01 372.403C135.626 372.403 135.439 372.473 135.367 372.538C135.281 372.614 135.254 372.758 135.254 373.072V376.948ZM136.116 372.015C137.395 372.015 138.285 372.279 138.896 372.854C139.381 373.311 139.746 373.987 139.746 374.944C139.746 376.061 139.284 376.934 138.541 377.494C137.82 378.038 136.897 378.288 135.767 378.288H133.252V377.961C134.019 377.896 134.089 377.816 134.089 377.018V373.287C134.089 372.47 133.98 372.406 133.252 372.341V372.015H136.116Z" fill="#404041"/>
</g>
<mask id="mask43_931_4191" style="mask-type:luminance" maskUnits="userSpaceOnUse" x="-96" y="-90" width="415" height="586">
<path d="M-96 -90H318.029V495.665H-96V-90Z" fill="white"/>
</mask>
<g mask="url(#mask43_931_4191)">
<path d="M145.816 376.685C145.764 376.942 145.498 378.011 145.407 378.288H140.512V377.968C141.396 377.888 141.457 377.826 141.457 377.022V373.292C141.457 372.458 141.345 372.403 140.666 372.342V372.016H143.737C144.713 372.016 145.064 372.006 145.193 371.996C145.202 372.193 145.247 372.961 145.285 373.529L144.94 373.577C144.853 373.249 144.713 372.921 144.569 372.737C144.402 372.501 144.242 372.439 143.72 372.439H142.992C142.649 372.439 142.617 372.462 142.617 372.773V374.83H143.607C144.211 374.83 144.29 374.686 144.425 374.01H144.774V376.105H144.425C144.281 375.398 144.204 375.288 143.597 375.288H142.617V377.04C142.617 377.709 142.704 377.861 143.261 377.871H144.021C144.578 377.871 144.706 377.797 144.918 377.539C145.139 377.287 145.335 376.916 145.483 376.601L145.816 376.685Z" fill="#404041"/>
</g>
<mask id="mask44_931_4191" style="mask-type:luminance" maskUnits="userSpaceOnUse" x="-96" y="-90" width="415" height="586">
<path d="M-96 -90H318.029V495.665H-96V-90Z" fill="white"/>
</mask>
<g mask="url(#mask44_931_4191)">
<path d="M152.564 372.342C151.925 372.416 151.741 372.503 151.381 373.403C151.096 374.109 149.984 376.796 149.354 378.394H148.898C148.523 377.361 147.417 374.419 146.962 373.254C146.672 372.534 146.534 372.4 145.92 372.342V372.015H148.69L148.684 372.342C147.976 372.431 147.963 372.516 148.11 372.905C148.575 374.192 149.049 375.475 149.532 376.755C150.088 375.422 150.649 374.019 150.951 373.186C151.183 372.557 151.099 372.432 150.295 372.342V372.015H152.564V372.342Z" fill="#404041"/>
</g>
<mask id="mask45_931_4191" style="mask-type:luminance" maskUnits="userSpaceOnUse" x="-96" y="-90" width="415" height="586">
<path d="M-96 -90H318.029V495.665H-96V-90Z" fill="white"/>
</mask>
<g mask="url(#mask45_931_4191)">
<path d="M158.154 376.685C158.102 376.942 157.836 378.011 157.746 378.288H152.85V377.968C153.735 377.888 153.795 377.826 153.795 377.022V373.292C153.795 372.458 153.683 372.403 153.004 372.342V372.016H156.075C157.051 372.016 157.403 372.006 157.53 371.996C157.54 372.193 157.585 372.961 157.624 373.529L157.278 373.577C157.191 373.249 157.05 372.921 156.907 372.737C156.74 372.501 156.58 372.439 156.058 372.439H155.33C154.987 372.439 154.955 372.462 154.955 372.773V374.83H155.944C156.548 374.83 156.628 374.686 156.763 374.01H157.112V376.105H156.763C156.619 375.398 156.542 375.288 155.935 375.288H154.955V377.04C154.955 377.709 155.042 377.861 155.6 377.871H156.358C156.916 377.871 157.044 377.797 157.256 377.539C157.477 377.287 157.673 376.916 157.821 376.601L158.154 376.685Z" fill="#404041"/>
</g>
<mask id="mask46_931_4191" style="mask-type:luminance" maskUnits="userSpaceOnUse" x="-96" y="-90" width="415" height="586">
<path d="M-96 -90H318.029V495.665H-96V-90Z" fill="white"/>
</mask>
<g mask="url(#mask46_931_4191)">
<path d="M163.775 376.622C163.704 376.997 163.427 378.014 163.337 378.288H158.656V377.961C159.515 377.893 159.593 377.832 159.593 377.018V373.287C159.593 372.473 159.496 372.406 158.757 372.342V372.015H161.617V372.342C160.858 372.413 160.759 372.47 160.759 373.287V377.096C160.759 377.647 160.798 377.851 161.335 377.861C161.351 377.867 161.883 377.87 161.928 377.87C162.458 377.87 162.602 377.775 162.831 377.521C163.034 377.308 163.268 376.903 163.431 376.521L163.775 376.622Z" fill="#404041"/>
</g>
<mask id="mask47_931_4191" style="mask-type:luminance" maskUnits="userSpaceOnUse" x="-96" y="-90" width="415" height="586">
<path d="M-96 -90H318.029V495.665H-96V-90Z" fill="white"/>
</mask>
<g mask="url(#mask47_931_4191)">
<path d="M167.569 372.282C166.552 372.282 165.737 373.227 165.737 374.969C165.737 376.657 166.501 378.029 167.828 378.029C168.832 378.029 169.604 377.148 169.604 375.349C169.604 373.397 168.739 372.282 167.569 372.282ZM167.732 371.881C169.469 371.881 170.932 373.17 170.932 375.078C170.932 377.141 169.486 378.433 167.68 378.433C165.777 378.433 164.395 377.025 164.395 375.179C164.395 373.502 165.589 371.881 167.731 371.881" fill="#404041"/>
</g>
<mask id="mask48_931_4191" style="mask-type:luminance" maskUnits="userSpaceOnUse" x="-96" y="-90" width="415" height="586">
<path d="M-96 -90H318.029V495.665H-96V-90Z" fill="white"/>
</mask>
<g mask="url(#mask48_931_4191)">
<path d="M173.809 375.273C173.925 375.331 174.141 375.379 174.388 375.379C174.902 375.379 175.653 375.095 175.653 373.842C175.653 372.767 175.028 372.386 174.336 372.386C174.106 372.386 173.961 372.435 173.903 372.49C173.832 372.551 173.809 372.655 173.809 372.84V375.273ZM174.459 372.015C175.194 372.015 175.762 372.146 176.158 372.417C176.603 372.722 176.87 373.181 176.87 373.837C176.87 375.24 175.676 375.822 174.685 375.828C174.585 375.828 174.47 375.819 174.406 375.809L173.809 375.654V377.034C173.809 377.845 173.877 377.877 174.733 377.961V378.288H171.807V377.961C172.567 377.874 172.643 377.835 172.643 377.027V373.29C172.643 372.463 172.544 372.4 171.807 372.341V372.015H174.459Z" fill="#404041"/>
</g>
<mask id="mask49_931_4191" style="mask-type:luminance" maskUnits="userSpaceOnUse" x="-96" y="-90" width="415" height="586">
<path d="M-96 -90H318.029V495.665H-96V-90Z" fill="white"/>
</mask>
<g mask="url(#mask49_931_4191)">
<path d="M182.721 378.288V377.961C183.475 377.884 183.516 377.82 183.513 376.893L183.51 373.069C182.781 374.766 181.841 376.924 181.271 378.288H180.976C180.453 376.958 179.627 374.862 178.918 373.153C178.78 376.305 178.776 376.96 178.776 377.251C178.786 377.778 178.996 377.894 179.695 377.961V378.288H177.34V377.961C177.894 377.909 178.138 377.8 178.215 377.241C178.26 376.904 178.288 376.425 178.521 373.122C178.553 372.645 178.475 372.418 177.639 372.342V372.015H179.581L181.537 376.494L183.555 372.015H185.469V372.342C184.676 372.425 184.583 372.506 184.602 373.244L184.666 376.893C184.686 377.82 184.721 377.862 185.526 377.961V378.288H182.721Z" fill="#404041"/>
</g>
<mask id="mask50_931_4191" style="mask-type:luminance" maskUnits="userSpaceOnUse" x="-96" y="-90" width="415" height="586">
<path d="M-96 -90H318.029V495.665H-96V-90Z" fill="white"/>
</mask>
<g mask="url(#mask50_931_4191)">
<path d="M191.488 376.685C191.436 376.942 191.17 378.011 191.08 378.288H186.184V377.968C187.069 377.888 187.129 377.826 187.129 377.022V373.292C187.129 372.458 187.017 372.403 186.338 372.342V372.016H189.409C190.385 372.016 190.737 372.006 190.864 371.996C190.874 372.193 190.919 372.961 190.958 373.529L190.612 373.577C190.525 373.249 190.384 372.921 190.241 372.737C190.074 372.501 189.914 372.439 189.392 372.439H188.664C188.321 372.439 188.289 372.462 188.289 372.773V374.83H189.278C189.882 374.83 189.962 374.686 190.097 374.01H190.446V376.105H190.097C189.953 375.398 189.876 375.288 189.269 375.288H188.289V377.04C188.289 377.709 188.376 377.861 188.934 377.871H189.692C190.25 377.871 190.378 377.797 190.59 377.539C190.811 377.287 191.007 376.916 191.155 376.601L191.488 376.685Z" fill="#404041"/>
</g>
<mask id="mask51_931_4191" style="mask-type:luminance" maskUnits="userSpaceOnUse" x="-96" y="-90" width="415" height="586">
<path d="M-96 -90H318.029V495.665H-96V-90Z" fill="white"/>
</mask>
<g mask="url(#mask51_931_4191)">
<path d="M198.795 372.341C198.196 372.415 198.006 372.53 197.977 372.968C197.955 373.32 197.93 373.676 197.93 374.535V378.387H197.45L193.39 373.484V375.746C193.39 376.595 193.412 376.992 193.438 377.272C193.469 377.72 193.686 377.915 194.393 377.961V378.287H192.017V377.96C192.584 377.912 192.822 377.767 192.873 377.307C192.908 376.973 192.927 376.595 192.927 375.743V373.394C192.927 373.093 192.908 372.9 192.728 372.663C192.551 372.422 192.329 372.383 191.9 372.341V372.014H193.63L197.451 376.492V374.535C197.451 373.676 197.438 373.323 197.409 372.99C197.38 372.568 197.202 372.39 196.411 372.341V372.014H198.795V372.341Z" fill="#404041"/>
</g>
<mask id="mask52_931_4191" style="mask-type:luminance" maskUnits="userSpaceOnUse" x="10" y="11" width="208" height="377">
<path d="M10.832 11.5078H217.181V387.806H10.832V11.5078Z" fill="white"/>
</mask>
<g mask="url(#mask52_931_4191)">
<path d="M204.811 373.63C204.712 373.234 204.534 372.884 204.434 372.735C204.267 372.512 204.183 372.438 203.627 372.438H202.889V377.032C202.889 377.822 202.978 377.897 203.857 377.961V378.288H200.792V377.961C201.64 377.897 201.723 377.825 201.723 377.032V372.438H201.033C200.496 372.438 200.342 372.515 200.165 372.767C200.037 372.954 199.922 373.261 199.796 373.636H199.457C199.521 372.972 199.585 372.27 199.608 371.78H199.874C200.019 372.006 200.131 372.015 200.414 372.015H204.259C204.523 372.015 204.638 371.963 204.795 371.78H205.058C205.073 372.388 205.104 372.995 205.151 373.601L204.811 373.63Z" fill="#404041"/>
</g>
</g>
<defs>
<clipPath id="clip0_931_4191">
<rect width="223" height="406" fill="white"/>
</clipPath>
</defs>
</svg>
